  0
SECTION
  2
HEADER
  9
$ACADVER
  1
AC1014
  9
$HANDSEED
  5
FFFF
  9
$MEASUREMENT
 70
     1
  0
ENDSEC
  0
SECTION
  2
TABLES
  0
TABLE
  2
VPORT
  5
8
330
0
100
AcDbSymbolTable
 70
     4
  0
VPORT
  5
2E
330
8
100
AcDbSymbolTableRecord
100
AcDbViewportTableRecord
  2
*ACTIVE
 70
     0
 10
0.0
 20
0.0
 11
1.0
 21
1.0
 12
210.0
 22
148.5
 13
0.0
 23
0.0
 14
10.0
 24
10.0
 15
10.0
 25
10.0
 16
0.0
 26
0.0
 36
1.0
 17
0.0
 27
0.0
 37
0.0
 40
341.0
 41
1.24
 42
50.0
 43
0.0
 44
0.0
 50
0.0
 51
0.0
 71
     0
 72
   100
 73
     1
 74
     3
 75
     0
 76
     0
 77
     0
 78
     0
  0
ENDTAB
  0
TABLE
  2
LTYPE
  5
5
330
0
100
AcDbSymbolTable
 70
     1
  0
LTYPE
  5
14
330
5
100
AcDbSymbolTableRecord
100
AcDbLinetypeTableRecord
  2
BYBLOCK
 70
     0
  3

 72
    65
 73
     0
 40
0.0
  0
LTYPE
  5
15
330
5
100
AcDbSymbolTableRecord
100
AcDbLinetypeTableRecord
  2
BYLAYER
 70
     0
  3

 72
    65
 73
     0
 40
0.0
  0
LTYPE
  5
16
330
5
100
AcDbSymbolTableRecord
100
AcDbLinetypeTableRecord
  2
CONTINUOUS
 70
     0
  3
Solid line
 72
    65
 73
     0
 40
0.0
  0
ENDTAB
  0
TABLE
  2
LAYER
  5
2
100
AcDbSymbolTable
 70
1
  0
LAYER
  5
50
100
AcDbSymbolTableRecord
100
AcDbLayerTableRecord
  2
0
 70
0
  6
CONTINUOUS
  0
ENDTAB
  0
TABLE
  2
STYLE
  5
3
330
0
100
AcDbSymbolTable
 70
     1
  0
STYLE
  5
11
330
3
100
AcDbSymbolTableRecord
100
AcDbTextStyleTableRecord
  2
STANDARD
 70
     0
 40
0.0
 41
1.0
 50
0.0
 71
     0
 42
2.5
  3
txt
  4

  0
ENDTAB
  0
TABLE
  2
VIEW
  5
6
330
0
100
AcDbSymbolTable
 70
     0
  0
ENDTAB
  0
TABLE
  2
UCS
  5
7
330
0
100
AcDbSymbolTable
 70
     0
  0
ENDTAB
  0
TABLE
  2
APPID
  5
9
330
0
100
AcDbSymbolTable
 70
     2
  0
APPID
  5
12
330
9
100
AcDbSymbolTableRecord
100
AcDbRegAppTableRecord
  2
ACAD
 70
     0
  0
ENDTAB
  0
TABLE
  2
DIMSTYLE
  5
A
330
0
100
AcDbSymbolTable
 70
     1
  0
DIMSTYLE
105
27
330
A
100
AcDbSymbolTableRecord
100
AcDbDimStyleTableRecord
  2
ISO-25
 70
     0
  3

  4

  5

  6

  7

 40
1.0
 41
2.5
 42
0.625
 43
3.75
 44
1.25
 45
0.0
 46
0.0
 47
0.0
 48
0.0
140
2.5
141
2.5
142
0.0
143
0.03937007874016
144
1.0
145
0.0
146
1.0
147
0.625
 71
     0
 72
     0
 73
     0
 74
     0
 75
     0
 76
     0
 77
     1
 78
     8
170
     0
171
     3
172
     1
173
     0
174
     0
175
     0
176
     0
177
     0
178
     0
270
     2
271
     2
272
     2
273
     2
274
     3
340
11
275
     0
280
     0
281
     0
282
     0
283
     0
284
     8
285
     0
286
     0
287
     3
288
     0
  0
ENDTAB
  0
TABLE
  2
BLOCK_RECORD
  5
1
330
0
100
AcDbSymbolTable
 70
     1
  0
BLOCK_RECORD
  5
1F
330
1
100
AcDbSymbolTableRecord
100
AcDbBlockTableRecord
  2
*MODEL_SPACE
  0
BLOCK_RECORD
  5
1B
330
1
100
AcDbSymbolTableRecord
100
AcDbBlockTableRecord
  2
*PAPER_SPACE
  0
ENDTAB
  0
ENDSEC
  0
SECTION
  2
BLOCKS
  0
BLOCK
  5
20
330
1F
100
AcDbEntity
  8
0
100
AcDbBlockBegin
  2
*MODEL_SPACE
 70
     0
 10
0.0
 20
0.0
 30
0.0
  3
*MODEL_SPACE
  1

  0
ENDBLK
  5
21
330
1F
100
AcDbEntity
  8
0
100
AcDbBlockEnd
  0
BLOCK
  5
1C
330
1B
100
AcDbEntity
 67
     1
  8
0
100
AcDbBlockBegin
  2
*PAPER_SPACE
  1

  0
ENDBLK
  5
1D
330
1B
100
AcDbEntity
 67
     1
  8
0
100
AcDbBlockEnd
  0
ENDSEC
  0
SECTION
  2
ENTITIES
  0
SPLINE
  5
100
100
AcDbEntity
  8
0
 62
7
100
AcDbSpline
 70
8
 71
3
 72
8
 73
4
 74
0
 40
0
 40
0
 40
0
 40
0
 40
1
 40
1
 40
1
 40
1
 10
104.898271
 20
151.016771
 30
0.0
 10
104.898271
 20
152.789034
 30
0.0
 10
103.952780
 20
154.426672
 30
0.0
 10
102.417956
 20
155.312803
 30
0.0
  0
SPLINE
  5
101
100
AcDbEntity
  8
0
 62
7
100
AcDbSpline
 70
8
 71
3
 72
8
 73
4
 74
0
 40
0
 40
0
 40
0
 40
0
 40
1
 40
1
 40
1
 40
1
 10
102.417956
 20
155.312803
 30
0.0
 10
100.883132
 20
156.198934
 30
0.0
 10
98.992150
 20
156.198934
 30
0.0
 10
97.457326
 20
155.312803
 30
0.0
  0
SPLINE
  5
102
100
AcDbEntity
  8
0
 62
7
100
AcDbSpline
 70
8
 71
3
 72
8
 73
4
 74
0
 40
0
 40
0
 40
0
 40
0
 40
1
 40
1
 40
1
 40
1
 10
97.457326
 20
155.312803
 30
0.0
 10
95.922502
 20
154.426672
 30
0.0
 10
94.977011
 20
152.789034
 30
0.0
 10
94.977011
 20
151.016771
 30
0.0
  0
SPLINE
  5
103
100
AcDbEntity
  8
0
 62
7
100
AcDbSpline
 70
8
 71
3
 72
8
 73
4
 74
0
 40
0
 40
0
 40
0
 40
0
 40
1
 40
1
 40
1
 40
1
 10
94.977011
 20
151.016771
 30
0.0
 10
94.977011
 20
149.244509
 30
0.0
 10
95.922502
 20
147.606871
 30
0.0
 10
97.457326
 20
146.720740
 30
0.0
  0
SPLINE
  5
104
100
AcDbEntity
  8
0
 62
7
100
AcDbSpline
 70
8
 71
3
 72
8
 73
4
 74
0
 40
0
 40
0
 40
0
 40
0
 40
1
 40
1
 40
1
 40
1
 10
97.457326
 20
146.720740
 30
0.0
 10
98.992150
 20
145.834609
 30
0.0
 10
100.883132
 20
145.834609
 30
0.0
 10
102.417956
 20
146.720740
 30
0.0
  0
SPLINE
  5
105
100
AcDbEntity
  8
0
 62
7
100
AcDbSpline
 70
8
 71
3
 72
8
 73
4
 74
0
 40
0
 40
0
 40
0
 40
0
 40
1
 40
1
 40
1
 40
1
 10
102.417956
 20
146.720740
 30
0.0
 10
103.952780
 20
147.606871
 30
0.0
 10
104.898271
 20
149.244509
 30
0.0
 10
104.898271
 20
151.016771
 30
0.0
  0
LWPOLYLINE
  5
106
100
AcDbEntity
  8
0
 62
7
100
AcDbPolyline
 90
4
 70
1
 10
510.961260
 20
703.772696
 30
0.0
 10
85.764412
 20
703.772696
 30
0.0
 10
85.764412
 20
136.843571
 30
0.0
 10
510.961260
 20
136.843571
 30
0.0
  0
SPLINE
  5
107
100
AcDbEntity
  8
0
 62
7
100
AcDbSpline
 70
8
 71
3
 72
8
 73
4
 74
0
 40
0
 40
0
 40
0
 40
0
 40
1
 40
1
 40
1
 40
1
 10
501.748663
 20
151.016771
 30
0.0
 10
501.748663
 20
152.789034
 30
0.0
 10
500.803173
 20
154.426672
 30
0.0
 10
499.268349
 20
155.312803
 30
0.0
  0
SPLINE
  5
108
100
AcDbEntity
  8
0
 62
7
100
AcDbSpline
 70
8
 71
3
 72
8
 73
4
 74
0
 40
0
 40
0
 40
0
 40
0
 40
1
 40
1
 40
1
 40
1
 10
499.268349
 20
155.312803
 30
0.0
 10
497.733524
 20
156.198934
 30
0.0
 10
495.842543
 20
156.198934
 30
0.0
 10
494.307719
 20
155.312803
 30
0.0
  0
SPLINE
  5
109
100
AcDbEntity
  8
0
 62
7
100
AcDbSpline
 70
8
 71
3
 72
8
 73
4
 74
0
 40
0
 40
0
 40
0
 40
0
 40
1
 40
1
 40
1
 40
1
 10
494.307719
 20
155.312803
 30
0.0
 10
492.772895
 20
154.426672
 30
0.0
 10
491.827404
 20
152.789034
 30
0.0
 10
491.827405
 20
151.016771
 30
0.0
  0
SPLINE
  5
10a
100
AcDbEntity
  8
0
 62
7
100
AcDbSpline
 70
8
 71
3
 72
8
 73
4
 74
0
 40
0
 40
0
 40
0
 40
0
 40
1
 40
1
 40
1
 40
1
 10
491.827405
 20
151.016771
 30
0.0
 10
491.827405
 20
149.244509
 30
0.0
 10
492.772895
 20
147.606871
 30
0.0
 10
494.307720
 20
146.720740
 30
0.0
  0
SPLINE
  5
10b
100
AcDbEntity
  8
0
 62
7
100
AcDbSpline
 70
8
 71
3
 72
8
 73
4
 74
0
 40
0
 40
0
 40
0
 40
0
 40
1
 40
1
 40
1
 40
1
 10
494.307720
 20
146.720740
 30
0.0
 10
495.842544
 20
145.834609
 30
0.0
 10
497.733525
 20
145.834609
 30
0.0
 10
499.268349
 20
146.720740
 30
0.0
  0
SPLINE
  5
10c
100
AcDbEntity
  8
0
 62
7
100
AcDbSpline
 70
8
 71
3
 72
8
 73
4
 74
0
 40
0
 40
0
 40
0
 40
0
 40
1
 40
1
 40
1
 40
1
 10
499.268349
 20
146.720740
 30
0.0
 10
500.803174
 20
147.606871
 30
0.0
 10
501.748664
 20
149.244509
 30
0.0
 10
501.748664
 20
151.016771
 30
0.0
  0
LWPOLYLINE
  5
10d
100
AcDbEntity
  8
0
 62
7
100
AcDbPolyline
 90
1
 70
1
 10
104.898271
 20
151.016771
 30
0.0
  0
SPLINE
  5
10e
100
AcDbEntity
  8
0
 62
7
100
AcDbSpline
 70
8
 71
3
 72
8
 73
4
 74
0
 40
0
 40
0
 40
0
 40
0
 40
1
 40
1
 40
1
 40
1
 10
501.748663
 20
689.599496
 30
0.0
 10
501.748663
 20
691.371759
 30
0.0
 10
500.803173
 20
693.009397
 30
0.0
 10
499.268349
 20
693.895528
 30
0.0
  0
SPLINE
  5
10f
100
AcDbEntity
  8
0
 62
7
100
AcDbSpline
 70
8
 71
3
 72
8
 73
4
 74
0
 40
0
 40
0
 40
0
 40
0
 40
1
 40
1
 40
1
 40
1
 10
499.268349
 20
693.895528
 30
0.0
 10
497.733524
 20
694.781659
 30
0.0
 10
495.842543
 20
694.781659
 30
0.0
 10
494.307719
 20
693.895528
 30
0.0
  0
SPLINE
  5
110
100
AcDbEntity
  8
0
 62
7
100
AcDbSpline
 70
8
 71
3
 72
8
 73
4
 74
0
 40
0
 40
0
 40
0
 40
0
 40
1
 40
1
 40
1
 40
1
 10
494.307719
 20
693.895528
 30
0.0
 10
492.772895
 20
693.009397
 30
0.0
 10
491.827404
 20
691.371759
 30
0.0
 10
491.827405
 20
689.599496
 30
0.0
  0
SPLINE
  5
111
100
AcDbEntity
  8
0
 62
7
100
AcDbSpline
 70
8
 71
3
 72
8
 73
4
 74
0
 40
0
 40
0
 40
0
 40
0
 40
1
 40
1
 40
1
 40
1
 10
491.827405
 20
689.599496
 30
0.0
 10
491.827405
 20
687.827234
 30
0.0
 10
492.772895
 20
686.189596
 30
0.0
 10
494.307720
 20
685.303465
 30
0.0
  0
SPLINE
  5
112
100
AcDbEntity
  8
0
 62
7
100
AcDbSpline
 70
8
 71
3
 72
8
 73
4
 74
0
 40
0
 40
0
 40
0
 40
0
 40
1
 40
1
 40
1
 40
1
 10
494.307720
 20
685.303465
 30
0.0
 10
495.842544
 20
684.417334
 30
0.0
 10
497.733525
 20
684.417334
 30
0.0
 10
499.268349
 20
685.303465
 30
0.0
  0
SPLINE
  5
113
100
AcDbEntity
  8
0
 62
7
100
AcDbSpline
 70
8
 71
3
 72
8
 73
4
 74
0
 40
0
 40
0
 40
0
 40
0
 40
1
 40
1
 40
1
 40
1
 10
499.268349
 20
685.303465
 30
0.0
 10
500.803174
 20
686.189596
 30
0.0
 10
501.748664
 20
687.827234
 30
0.0
 10
501.748664
 20
689.599496
 30
0.0
  0
LWPOLYLINE
  5
114
100
AcDbEntity
  8
0
 62
7
100
AcDbPolyline
 90
1
 70
1
 10
501.748664
 20
151.016771
 30
0.0
  0
SPLINE
  5
115
100
AcDbEntity
  8
0
 62
7
100
AcDbSpline
 70
8
 71
3
 72
8
 73
4
 74
0
 40
0
 40
0
 40
0
 40
0
 40
1
 40
1
 40
1
 40
1
 10
104.898271
 20
689.599496
 30
0.0
 10
104.898271
 20
691.371759
 30
0.0
 10
103.952780
 20
693.009397
 30
0.0
 10
102.417956
 20
693.895528
 30
0.0
  0
SPLINE
  5
116
100
AcDbEntity
  8
0
 62
7
100
AcDbSpline
 70
8
 71
3
 72
8
 73
4
 74
0
 40
0
 40
0
 40
0
 40
0
 40
1
 40
1
 40
1
 40
1
 10
102.417956
 20
693.895528
 30
0.0
 10
100.883132
 20
694.781659
 30
0.0
 10
98.992150
 20
694.781659
 30
0.0
 10
97.457326
 20
693.895528
 30
0.0
  0
SPLINE
  5
117
100
AcDbEntity
  8
0
 62
7
100
AcDbSpline
 70
8
 71
3
 72
8
 73
4
 74
0
 40
0
 40
0
 40
0
 40
0
 40
1
 40
1
 40
1
 40
1
 10
97.457326
 20
693.895528
 30
0.0
 10
95.922502
 20
693.009397
 30
0.0
 10
94.977011
 20
691.371759
 30
0.0
 10
94.977011
 20
689.599496
 30
0.0
  0
SPLINE
  5
118
100
AcDbEntity
  8
0
 62
7
100
AcDbSpline
 70
8
 71
3
 72
8
 73
4
 74
0
 40
0
 40
0
 40
0
 40
0
 40
1
 40
1
 40
1
 40
1
 10
94.977011
 20
689.599496
 30
0.0
 10
94.977011
 20
687.827234
 30
0.0
 10
95.922502
 20
686.189596
 30
0.0
 10
97.457326
 20
685.303465
 30
0.0
  0
SPLINE
  5
119
100
AcDbEntity
  8
0
 62
7
100
AcDbSpline
 70
8
 71
3
 72
8
 73
4
 74
0
 40
0
 40
0
 40
0
 40
0
 40
1
 40
1
 40
1
 40
1
 10
97.457326
 20
685.303465
 30
0.0
 10
98.992150
 20
684.417334
 30
0.0
 10
100.883132
 20
684.417334
 30
0.0
 10
102.417956
 20
685.303465
 30
0.0
  0
SPLINE
  5
11a
100
AcDbEntity
  8
0
 62
7
100
AcDbSpline
 70
8
 71
3
 72
8
 73
4
 74
0
 40
0
 40
0
 40
0
 40
0
 40
1
 40
1
 40
1
 40
1
 10
102.417956
 20
685.303465
 30
0.0
 10
103.952780
 20
686.189596
 30
0.0
 10
104.898271
 20
687.827234
 30
0.0
 10
104.898271
 20
689.599496
 30
0.0
  0
LWPOLYLINE
  5
11b
100
AcDbEntity
  8
0
 62
7
100
AcDbPolyline
 90
1
 70
1
 10
501.748664
 20
689.599496
 30
0.0
  0
SPLINE
  5
11c
100
AcDbEntity
  8
0
 62
7
100
AcDbSpline
 70
8
 71
3
 72
8
 73
4
 74
0
 40
0
 40
0
 40
0
 40
0
 40
1
 40
1
 40
1
 40
1
 10
454.268347
 20
647.079821
 30
0.0
 10
454.271202
 20
652.145329
 30
0.0
 10
451.570425
 20
656.827274
 30
0.0
 10
447.184041
 20
659.360852
 30
0.0
  0
SPLINE
  5
11d
100
AcDbEntity
  8
0
 62
7
100
AcDbSpline
 70
8
 71
3
 72
8
 73
4
 74
0
 40
0
 40
0
 40
0
 40
0
 40
1
 40
1
 40
1
 40
1
 10
447.184041
 20
659.360852
 30
0.0
 10
442.797657
 20
661.894431
 30
0.0
 10
437.392585
 20
661.894431
 30
0.0
 10
433.006202
 20
659.360852
 30
0.0
  0
SPLINE
  5
11e
100
AcDbEntity
  8
0
 62
7
100
AcDbSpline
 70
8
 71
3
 72
8
 73
4
 74
0
 40
0
 40
0
 40
0
 40
0
 40
1
 40
1
 40
1
 40
1
 10
433.006202
 20
659.360852
 30
0.0
 10
428.619818
 20
656.827274
 30
0.0
 10
425.919041
 20
652.145329
 30
0.0
 10
425.921895
 20
647.079821
 30
0.0
  0
SPLINE
  5
11f
100
AcDbEntity
  8
0
 62
7
100
AcDbSpline
 70
8
 71
3
 72
8
 73
4
 74
0
 40
0
 40
0
 40
0
 40
0
 40
1
 40
1
 40
1
 40
1
 10
425.921895
 20
647.079821
 30
0.0
 10
425.919041
 20
642.014313
 30
0.0
 10
428.619818
 20
637.332369
 30
0.0
 10
433.006202
 20
634.798790
 30
0.0
  0
SPLINE
  5
120
100
AcDbEntity
  8
0
 62
7
100
AcDbSpline
 70
8
 71
3
 72
8
 73
4
 74
0
 40
0
 40
0
 40
0
 40
0
 40
1
 40
1
 40
1
 40
1
 10
433.006202
 20
634.798790
 30
0.0
 10
437.392585
 20
632.265212
 30
0.0
 10
442.797657
 20
632.265212
 30
0.0
 10
447.184041
 20
634.798790
 30
0.0
  0
SPLINE
  5
121
100
AcDbEntity
  8
0
 62
7
100
AcDbSpline
 70
8
 71
3
 72
8
 73
4
 74
0
 40
0
 40
0
 40
0
 40
0
 40
1
 40
1
 40
1
 40
1
 10
447.184041
 20
634.798790
 30
0.0
 10
451.570425
 20
637.332369
 30
0.0
 10
454.271202
 20
642.014313
 30
0.0
 10
454.268347
 20
647.079821
 30
0.0
  0
LWPOLYLINE
  5
122
100
AcDbEntity
  8
0
 62
7
100
AcDbPolyline
 90
1
 70
1
 10
104.898271
 20
689.599496
 30
0.0
  0
SPLINE
  5
123
100
AcDbEntity
  8
0
 62
7
100
AcDbSpline
 70
8
 71
3
 72
8
 73
4
 74
0
 40
0
 40
0
 40
0
 40
0
 40
1
 40
1
 40
1
 40
1
 10
397.575435
 20
647.079821
 30
0.0
 10
397.578289
 20
652.145329
 30
0.0
 10
394.877512
 20
656.827274
 30
0.0
 10
390.491128
 20
659.360852
 30
0.0
  0
SPLINE
  5
124
100
AcDbEntity
  8
0
 62
7
100
AcDbSpline
 70
8
 71
3
 72
8
 73
4
 74
0
 40
0
 40
0
 40
0
 40
0
 40
1
 40
1
 40
1
 40
1
 10
390.491128
 20
659.360852
 30
0.0
 10
386.104745
 20
661.894431
 30
0.0
 10
380.699673
 20
661.894431
 30
0.0
 10
376.313289
 20
659.360852
 30
0.0
  0
SPLINE
  5
125
100
AcDbEntity
  8
0
 62
7
100
AcDbSpline
 70
8
 71
3
 72
8
 73
4
 74
0
 40
0
 40
0
 40
0
 40
0
 40
1
 40
1
 40
1
 40
1
 10
376.313289
 20
659.360852
 30
0.0
 10
371.926905
 20
656.827274
 30
0.0
 10
369.226128
 20
652.145329
 30
0.0
 10
369.228982
 20
647.079821
 30
0.0
  0
SPLINE
  5
126
100
AcDbEntity
  8
0
 62
7
100
AcDbSpline
 70
8
 71
3
 72
8
 73
4
 74
0
 40
0
 40
0
 40
0
 40
0
 40
1
 40
1
 40
1
 40
1
 10
369.228982
 20
647.079821
 30
0.0
 10
369.226128
 20
642.014313
 30
0.0
 10
371.926905
 20
637.332369
 30
0.0
 10
376.313289
 20
634.798790
 30
0.0
  0
SPLINE
  5
127
100
AcDbEntity
  8
0
 62
7
100
AcDbSpline
 70
8
 71
3
 72
8
 73
4
 74
0
 40
0
 40
0
 40
0
 40
0
 40
1
 40
1
 40
1
 40
1
 10
376.313289
 20
634.798790
 30
0.0
 10
380.699673
 20
632.265212
 30
0.0
 10
386.104745
 20
632.265212
 30
0.0
 10
390.491128
 20
634.798790
 30
0.0
  0
SPLINE
  5
128
100
AcDbEntity
  8
0
 62
7
100
AcDbSpline
 70
8
 71
3
 72
8
 73
4
 74
0
 40
0
 40
0
 40
0
 40
0
 40
1
 40
1
 40
1
 40
1
 10
390.491128
 20
634.798790
 30
0.0
 10
394.877512
 20
637.332369
 30
0.0
 10
397.578289
 20
642.014313
 30
0.0
 10
397.575435
 20
647.079821
 30
0.0
  0
LWPOLYLINE
  5
129
100
AcDbEntity
  8
0
 62
7
100
AcDbPolyline
 90
1
 70
1
 10
454.268347
 20
647.079821
 30
0.0
  0
SPLINE
  5
12a
100
AcDbEntity
  8
0
 62
7
100
AcDbSpline
 70
8
 71
3
 72
8
 73
4
 74
0
 40
0
 40
0
 40
0
 40
0
 40
1
 40
1
 40
1
 40
1
 10
340.882522
 20
647.079821
 30
0.0
 10
340.885377
 20
652.145329
 30
0.0
 10
338.184600
 20
656.827274
 30
0.0
 10
333.798216
 20
659.360852
 30
0.0
  0
SPLINE
  5
12b
100
AcDbEntity
  8
0
 62
7
100
AcDbSpline
 70
8
 71
3
 72
8
 73
4
 74
0
 40
0
 40
0
 40
0
 40
0
 40
1
 40
1
 40
1
 40
1
 10
333.798216
 20
659.360852
 30
0.0
 10
329.411832
 20
661.894431
 30
0.0
 10
324.006760
 20
661.894431
 30
0.0
 10
319.620377
 20
659.360852
 30
0.0
  0
SPLINE
  5
12c
100
AcDbEntity
  8
0
 62
7
100
AcDbSpline
 70
8
 71
3
 72
8
 73
4
 74
0
 40
0
 40
0
 40
0
 40
0
 40
1
 40
1
 40
1
 40
1
 10
319.620377
 20
659.360852
 30
0.0
 10
315.233993
 20
656.827274
 30
0.0
 10
312.533216
 20
652.145329
 30
0.0
 10
312.536070
 20
647.079821
 30
0.0
  0
SPLINE
  5
12d
100
AcDbEntity
  8
0
 62
7
100
AcDbSpline
 70
8
 71
3
 72
8
 73
4
 74
0
 40
0
 40
0
 40
0
 40
0
 40
1
 40
1
 40
1
 40
1
 10
312.536070
 20
647.079821
 30
0.0
 10
312.533216
 20
642.014313
 30
0.0
 10
315.233993
 20
637.332369
 30
0.0
 10
319.620377
 20
634.798790
 30
0.0
  0
SPLINE
  5
12e
100
AcDbEntity
  8
0
 62
7
100
AcDbSpline
 70
8
 71
3
 72
8
 73
4
 74
0
 40
0
 40
0
 40
0
 40
0
 40
1
 40
1
 40
1
 40
1
 10
319.620377
 20
634.798790
 30
0.0
 10
324.006760
 20
632.265212
 30
0.0
 10
329.411832
 20
632.265212
 30
0.0
 10
333.798216
 20
634.798790
 30
0.0
  0
SPLINE
  5
12f
100
AcDbEntity
  8
0
 62
7
100
AcDbSpline
 70
8
 71
3
 72
8
 73
4
 74
0
 40
0
 40
0
 40
0
 40
0
 40
1
 40
1
 40
1
 40
1
 10
333.798216
 20
634.798790
 30
0.0
 10
338.184600
 20
637.332369
 30
0.0
 10
340.885377
 20
642.014313
 30
0.0
 10
340.882522
 20
647.079821
 30
0.0
  0
LWPOLYLINE
  5
130
100
AcDbEntity
  8
0
 62
7
100
AcDbPolyline
 90
1
 70
1
 10
397.575435
 20
647.079821
 30
0.0
  0
SPLINE
  5
131
100
AcDbEntity
  8
0
 62
7
100
AcDbSpline
 70
8
 71
3
 72
8
 73
4
 74
0
 40
0
 40
0
 40
0
 40
0
 40
1
 40
1
 40
1
 40
1
 10
284.189609
 20
647.079821
 30
0.0
 10
284.189609
 20
652.143428
 30
0.0
 10
281.488206
 20
656.822394
 30
0.0
 10
277.102994
 20
659.354197
 30
0.0
  0
SPLINE
  5
132
100
AcDbEntity
  8
0
 62
7
100
AcDbSpline
 70
8
 71
3
 72
8
 73
4
 74
0
 40
0
 40
0
 40
0
 40
0
 40
1
 40
1
 40
1
 40
1
 10
277.102994
 20
659.354197
 30
0.0
 10
272.717782
 20
661.886001
 30
0.0
 10
267.314978
 20
661.886001
 30
0.0
 10
262.929766
 20
659.354197
 30
0.0
  0
SPLINE
  5
133
100
AcDbEntity
  8
0
 62
7
100
AcDbSpline
 70
8
 71
3
 72
8
 73
4
 74
0
 40
0
 40
0
 40
0
 40
0
 40
1
 40
1
 40
1
 40
1
 10
262.929766
 20
659.354197
 30
0.0
 10
258.544554
 20
656.822394
 30
0.0
 10
255.843151
 20
652.143428
 30
0.0
 10
255.843152
 20
647.079821
 30
0.0
  0
SPLINE
  5
134
100
AcDbEntity
  8
0
 62
7
100
AcDbSpline
 70
8
 71
3
 72
8
 73
4
 74
0
 40
0
 40
0
 40
0
 40
0
 40
1
 40
1
 40
1
 40
1
 10
255.843152
 20
647.079821
 30
0.0
 10
255.843152
 20
642.016214
 30
0.0
 10
258.544554
 20
637.337249
 30
0.0
 10
262.929766
 20
634.805445
 30
0.0
  0
SPLINE
  5
135
100
AcDbEntity
  8
0
 62
7
100
AcDbSpline
 70
8
 71
3
 72
8
 73
4
 74
0
 40
0
 40
0
 40
0
 40
0
 40
1
 40
1
 40
1
 40
1
 10
262.929766
 20
634.805445
 30
0.0
 10
267.314979
 20
632.273642
 30
0.0
 10
272.717783
 20
632.273642
 30
0.0
 10
277.102995
 20
634.805445
 30
0.0
  0
SPLINE
  5
136
100
AcDbEntity
  8
0
 62
7
100
AcDbSpline
 70
8
 71
3
 72
8
 73
4
 74
0
 40
0
 40
0
 40
0
 40
0
 40
1
 40
1
 40
1
 40
1
 10
277.102995
 20
634.805445
 30
0.0
 10
281.488207
 20
637.337249
 30
0.0
 10
284.189609
 20
642.016214
 30
0.0
 10
284.189609
 20
647.079821
 30
0.0
  0
LWPOLYLINE
  5
137
100
AcDbEntity
  8
0
 62
7
100
AcDbPolyline
 90
1
 70
1
 10
340.882522
 20
647.079821
 30
0.0
  0
SPLINE
  5
138
100
AcDbEntity
  8
0
 62
7
100
AcDbSpline
 70
8
 71
3
 72
8
 73
4
 74
0
 40
0
 40
0
 40
0
 40
0
 40
1
 40
1
 40
1
 40
1
 10
448.599059
 20
604.560071
 30
0.0
 10
448.599059
 20
607.598235
 30
0.0
 10
446.978217
 20
610.405615
 30
0.0
 10
444.347090
 20
611.924697
 30
0.0
  0
SPLINE
  5
139
100
AcDbEntity
  8
0
 62
7
100
AcDbSpline
 70
8
 71
3
 72
8
 73
4
 74
0
 40
0
 40
0
 40
0
 40
0
 40
1
 40
1
 40
1
 40
1
 10
444.347090
 20
611.924697
 30
0.0
 10
441.715963
 20
613.443779
 30
0.0
 10
438.474280
 20
613.443779
 30
0.0
 10
435.843153
 20
611.924697
 30
0.0
  0
SPLINE
  5
13a
100
AcDbEntity
  8
0
 62
7
100
AcDbSpline
 70
8
 71
3
 72
8
 73
4
 74
0
 40
0
 40
0
 40
0
 40
0
 40
1
 40
1
 40
1
 40
1
 10
435.843153
 20
611.924697
 30
0.0
 10
433.212025
 20
610.405615
 30
0.0
 10
431.591184
 20
607.598235
 30
0.0
 10
431.591185
 20
604.560071
 30
0.0
  0
SPLINE
  5
13b
100
AcDbEntity
  8
0
 62
7
100
AcDbSpline
 70
8
 71
3
 72
8
 73
4
 74
0
 40
0
 40
0
 40
0
 40
0
 40
1
 40
1
 40
1
 40
1
 10
431.591185
 20
604.560071
 30
0.0
 10
431.591185
 20
601.521907
 30
0.0
 10
433.212026
 20
598.714528
 30
0.0
 10
435.843153
 20
597.195446
 30
0.0
  0
SPLINE
  5
13c
100
AcDbEntity
  8
0
 62
7
100
AcDbSpline
 70
8
 71
3
 72
8
 73
4
 74
0
 40
0
 40
0
 40
0
 40
0
 40
1
 40
1
 40
1
 40
1
 10
435.843153
 20
597.195446
 30
0.0
 10
438.474281
 20
595.676364
 30
0.0
 10
441.715963
 20
595.676364
 30
0.0
 10
444.347091
 20
597.195446
 30
0.0
  0
SPLINE
  5
13d
100
AcDbEntity
  8
0
 62
7
100
AcDbSpline
 70
8
 71
3
 72
8
 73
4
 74
0
 40
0
 40
0
 40
0
 40
0
 40
1
 40
1
 40
1
 40
1
 10
444.347091
 20
597.195446
 30
0.0
 10
446.978218
 20
598.714528
 30
0.0
 10
448.599059
 20
601.521907
 30
0.0
 10
448.599059
 20
604.560071
 30
0.0
  0
LWPOLYLINE
  5
13e
100
AcDbEntity
  8
0
 62
7
100
AcDbPolyline
 90
1
 70
1
 10
284.189609
 20
647.079821
 30
0.0
  0
SPLINE
  5
13f
100
AcDbEntity
  8
0
 62
7
100
AcDbSpline
 70
8
 71
3
 72
8
 73
4
 74
0
 40
0
 40
0
 40
0
 40
0
 40
1
 40
1
 40
1
 40
1
 10
391.906146
 20
604.560071
 30
0.0
 10
391.906146
 20
607.598235
 30
0.0
 10
390.285305
 20
610.405615
 30
0.0
 10
387.654177
 20
611.924697
 30
0.0
  0
SPLINE
  5
140
100
AcDbEntity
  8
0
 62
7
100
AcDbSpline
 70
8
 71
3
 72
8
 73
4
 74
0
 40
0
 40
0
 40
0
 40
0
 40
1
 40
1
 40
1
 40
1
 10
387.654177
 20
611.924697
 30
0.0
 10
385.023050
 20
613.443779
 30
0.0
 10
381.781367
 20
613.443779
 30
0.0
 10
379.150240
 20
611.924697
 30
0.0
  0
SPLINE
  5
141
100
AcDbEntity
  8
0
 62
7
100
AcDbSpline
 70
8
 71
3
 72
8
 73
4
 74
0
 40
0
 40
0
 40
0
 40
0
 40
1
 40
1
 40
1
 40
1
 10
379.150240
 20
611.924697
 30
0.0
 10
376.519113
 20
610.405615
 30
0.0
 10
374.898272
 20
607.598235
 30
0.0
 10
374.898272
 20
604.560071
 30
0.0
  0
SPLINE
  5
142
100
AcDbEntity
  8
0
 62
7
100
AcDbSpline
 70
8
 71
3
 72
8
 73
4
 74
0
 40
0
 40
0
 40
0
 40
0
 40
1
 40
1
 40
1
 40
1
 10
374.898272
 20
604.560071
 30
0.0
 10
374.898272
 20
601.521907
 30
0.0
 10
376.519114
 20
598.714528
 30
0.0
 10
379.150241
 20
597.195446
 30
0.0
  0
SPLINE
  5
143
100
AcDbEntity
  8
0
 62
7
100
AcDbSpline
 70
8
 71
3
 72
8
 73
4
 74
0
 40
0
 40
0
 40
0
 40
0
 40
1
 40
1
 40
1
 40
1
 10
379.150241
 20
597.195446
 30
0.0
 10
381.781368
 20
595.676364
 30
0.0
 10
385.023051
 20
595.676364
 30
0.0
 10
387.654178
 20
597.195446
 30
0.0
  0
SPLINE
  5
144
100
AcDbEntity
  8
0
 62
7
100
AcDbSpline
 70
8
 71
3
 72
8
 73
4
 74
0
 40
0
 40
0
 40
0
 40
0
 40
1
 40
1
 40
1
 40
1
 10
387.654178
 20
597.195446
 30
0.0
 10
390.285305
 20
598.714528
 30
0.0
 10
391.906147
 20
601.521907
 30
0.0
 10
391.906147
 20
604.560071
 30
0.0
  0
LWPOLYLINE
  5
145
100
AcDbEntity
  8
0
 62
7
100
AcDbPolyline
 90
1
 70
1
 10
448.599059
 20
604.560071
 30
0.0
  0
SPLINE
  5
146
100
AcDbEntity
  8
0
 62
7
100
AcDbSpline
 70
8
 71
3
 72
8
 73
4
 74
0
 40
0
 40
0
 40
0
 40
0
 40
1
 40
1
 40
1
 40
1
 10
335.213234
 20
604.560071
 30
0.0
 10
335.213234
 20
607.598235
 30
0.0
 10
333.592392
 20
610.405615
 30
0.0
 10
330.961265
 20
611.924697
 30
0.0
  0
SPLINE
  5
147
100
AcDbEntity
  8
0
 62
7
100
AcDbSpline
 70
8
 71
3
 72
8
 73
4
 74
0
 40
0
 40
0
 40
0
 40
0
 40
1
 40
1
 40
1
 40
1
 10
330.961265
 20
611.924697
 30
0.0
 10
328.330138
 20
613.443779
 30
0.0
 10
325.088455
 20
613.443779
 30
0.0
 10
322.457328
 20
611.924697
 30
0.0
  0
SPLINE
  5
148
100
AcDbEntity
  8
0
 62
7
100
AcDbSpline
 70
8
 71
3
 72
8
 73
4
 74
0
 40
0
 40
0
 40
0
 40
0
 40
1
 40
1
 40
1
 40
1
 10
322.457328
 20
611.924697
 30
0.0
 10
319.826200
 20
610.405615
 30
0.0
 10
318.205359
 20
607.598235
 30
0.0
 10
318.205360
 20
604.560071
 30
0.0
  0
SPLINE
  5
149
100
AcDbEntity
  8
0
 62
7
100
AcDbSpline
 70
8
 71
3
 72
8
 73
4
 74
0
 40
0
 40
0
 40
0
 40
0
 40
1
 40
1
 40
1
 40
1
 10
318.205360
 20
604.560071
 30
0.0
 10
318.205360
 20
601.521907
 30
0.0
 10
319.826201
 20
598.714528
 30
0.0
 10
322.457328
 20
597.195446
 30
0.0
  0
SPLINE
  5
14a
100
AcDbEntity
  8
0
 62
7
100
AcDbSpline
 70
8
 71
3
 72
8
 73
4
 74
0
 40
0
 40
0
 40
0
 40
0
 40
1
 40
1
 40
1
 40
1
 10
322.457328
 20
597.195446
 30
0.0
 10
325.088456
 20
595.676364
 30
0.0
 10
328.330138
 20
595.676364
 30
0.0
 10
330.961266
 20
597.195446
 30
0.0
  0
SPLINE
  5
14b
100
AcDbEntity
  8
0
 62
7
100
AcDbSpline
 70
8
 71
3
 72
8
 73
4
 74
0
 40
0
 40
0
 40
0
 40
0
 40
1
 40
1
 40
1
 40
1
 10
330.961266
 20
597.195446
 30
0.0
 10
333.592393
 20
598.714528
 30
0.0
 10
335.213234
 20
601.521907
 30
0.0
 10
335.213234
 20
604.560071
 30
0.0
  0
LWPOLYLINE
  5
14c
100
AcDbEntity
  8
0
 62
7
100
AcDbPolyline
 90
1
 70
1
 10
391.906147
 20
604.560071
 30
0.0
  0
SPLINE
  5
14d
100
AcDbEntity
  8
0
 62
7
100
AcDbSpline
 70
8
 71
3
 72
8
 73
4
 74
0
 40
0
 40
0
 40
0
 40
0
 40
1
 40
1
 40
1
 40
1
 10
278.520315
 20
604.560071
 30
0.0
 10
278.522526
 20
607.599708
 30
0.0
 10
276.902169
 20
610.409395
 30
0.0
 10
274.270134
 20
611.929852
 30
0.0
  0
SPLINE
  5
14e
100
AcDbEntity
  8
0
 62
7
100
AcDbSpline
 70
8
 71
3
 72
8
 73
4
 74
0
 40
0
 40
0
 40
0
 40
0
 40
1
 40
1
 40
1
 40
1
 10
274.270134
 20
611.929852
 30
0.0
 10
271.638100
 20
613.450309
 30
0.0
 10
268.394660
 20
613.450309
 30
0.0
 10
265.762626
 20
611.929852
 30
0.0
  0
SPLINE
  5
14f
100
AcDbEntity
  8
0
 62
7
100
AcDbSpline
 70
8
 71
3
 72
8
 73
4
 74
0
 40
0
 40
0
 40
0
 40
0
 40
1
 40
1
 40
1
 40
1
 10
265.762626
 20
611.929852
 30
0.0
 10
263.130591
 20
610.409395
 30
0.0
 10
261.510234
 20
607.599708
 30
0.0
 10
261.512445
 20
604.560071
 30
0.0
  0
SPLINE
  5
150
100
AcDbEntity
  8
0
 62
7
100
AcDbSpline
 70
8
 71
3
 72
8
 73
4
 74
0
 40
0
 40
0
 40
0
 40
0
 40
1
 40
1
 40
1
 40
1
 10
261.512445
 20
604.560071
 30
0.0
 10
261.510234
 20
601.520434
 30
0.0
 10
263.130591
 20
598.710748
 30
0.0
 10
265.762626
 20
597.190291
 30
0.0
  0
SPLINE
  5
151
100
AcDbEntity
  8
0
 62
7
100
AcDbSpline
 70
8
 71
3
 72
8
 73
4
 74
0
 40
0
 40
0
 40
0
 40
0
 40
1
 40
1
 40
1
 40
1
 10
265.762626
 20
597.190291
 30
0.0
 10
268.394660
 20
595.669834
 30
0.0
 10
271.638100
 20
595.669834
 30
0.0
 10
274.270134
 20
597.190291
 30
0.0
  0
SPLINE
  5
152
100
AcDbEntity
  8
0
 62
7
100
AcDbSpline
 70
8
 71
3
 72
8
 73
4
 74
0
 40
0
 40
0
 40
0
 40
0
 40
1
 40
1
 40
1
 40
1
 10
274.270134
 20
597.190291
 30
0.0
 10
276.902169
 20
598.710748
 30
0.0
 10
278.522526
 20
601.520434
 30
0.0
 10
278.520315
 20
604.560071
 30
0.0
  0
LWPOLYLINE
  5
153
100
AcDbEntity
  8
0
 62
7
100
AcDbPolyline
 90
1
 70
1
 10
335.213234
 20
604.560071
 30
0.0
  0
SPLINE
  5
154
100
AcDbEntity
  8
0
 62
7
100
AcDbSpline
 70
8
 71
3
 72
8
 73
4
 74
0
 40
0
 40
0
 40
0
 40
0
 40
1
 40
1
 40
1
 40
1
 10
227.496696
 20
562.040396
 30
0.0
 10
227.496696
 20
567.104003
 30
0.0
 10
224.795294
 20
571.782969
 30
0.0
 10
220.410082
 20
574.314772
 30
0.0
  0
SPLINE
  5
155
100
AcDbEntity
  8
0
 62
7
100
AcDbSpline
 70
8
 71
3
 72
8
 73
4
 74
0
 40
0
 40
0
 40
0
 40
0
 40
1
 40
1
 40
1
 40
1
 10
220.410082
 20
574.314772
 30
0.0
 10
216.024870
 20
576.846576
 30
0.0
 10
210.622065
 20
576.846576
 30
0.0
 10
206.236853
 20
574.314772
 30
0.0
  0
SPLINE
  5
156
100
AcDbEntity
  8
0
 62
7
100
AcDbSpline
 70
8
 71
3
 72
8
 73
4
 74
0
 40
0
 40
0
 40
0
 40
0
 40
1
 40
1
 40
1
 40
1
 10
206.236853
 20
574.314772
 30
0.0
 10
201.851641
 20
571.782969
 30
0.0
 10
199.150239
 20
567.104003
 30
0.0
 10
199.150240
 20
562.040396
 30
0.0
  0
SPLINE
  5
157
100
AcDbEntity
  8
0
 62
7
100
AcDbSpline
 70
8
 71
3
 72
8
 73
4
 74
0
 40
0
 40
0
 40
0
 40
0
 40
1
 40
1
 40
1
 40
1
 10
199.150240
 20
562.040396
 30
0.0
 10
199.150240
 20
556.976789
 30
0.0
 10
201.851642
 20
552.297824
 30
0.0
 10
206.236854
 20
549.766020
 30
0.0
  0
SPLINE
  5
158
100
AcDbEntity
  8
0
 62
7
100
AcDbSpline
 70
8
 71
3
 72
8
 73
4
 74
0
 40
0
 40
0
 40
0
 40
0
 40
1
 40
1
 40
1
 40
1
 10
206.236854
 20
549.766020
 30
0.0
 10
210.622066
 20
547.234217
 30
0.0
 10
216.024870
 20
547.234217
 30
0.0
 10
220.410082
 20
549.766020
 30
0.0
  0
SPLINE
  5
159
100
AcDbEntity
  8
0
 62
7
100
AcDbSpline
 70
8
 71
3
 72
8
 73
4
 74
0
 40
0
 40
0
 40
0
 40
0
 40
1
 40
1
 40
1
 40
1
 10
220.410082
 20
549.766020
 30
0.0
 10
224.795295
 20
552.297824
 30
0.0
 10
227.496697
 20
556.976789
 30
0.0
 10
227.496697
 20
562.040396
 30
0.0
  0
LWPOLYLINE
  5
15a
100
AcDbEntity
  8
0
 62
7
100
AcDbPolyline
 90
1
 70
1
 10
278.520315
 20
604.560071
 30
0.0
  0
SPLINE
  5
15b
100
AcDbEntity
  8
0
 62
7
100
AcDbSpline
 70
8
 71
3
 72
8
 73
4
 74
0
 40
0
 40
0
 40
0
 40
0
 40
1
 40
1
 40
1
 40
1
 10
170.803784
 20
562.040396
 30
0.0
 10
170.803784
 20
567.104003
 30
0.0
 10
168.102382
 20
571.782969
 30
0.0
 10
163.717170
 20
574.314772
 30
0.0
  0
SPLINE
  5
15c
100
AcDbEntity
  8
0
 62
7
100
AcDbSpline
 70
8
 71
3
 72
8
 73
4
 74
0
 40
0
 40
0
 40
0
 40
0
 40
1
 40
1
 40
1
 40
1
 10
163.717170
 20
574.314772
 30
0.0
 10
159.331957
 20
576.846576
 30
0.0
 10
153.929153
 20
576.846576
 30
0.0
 10
149.543941
 20
574.314772
 30
0.0
  0
SPLINE
  5
15d
100
AcDbEntity
  8
0
 62
7
100
AcDbSpline
 70
8
 71
3
 72
8
 73
4
 74
0
 40
0
 40
0
 40
0
 40
0
 40
1
 40
1
 40
1
 40
1
 10
149.543941
 20
574.314772
 30
0.0
 10
145.158729
 20
571.782969
 30
0.0
 10
142.457327
 20
567.104003
 30
0.0
 10
142.457327
 20
562.040396
 30
0.0
  0
SPLINE
  5
15e
100
AcDbEntity
  8
0
 62
7
100
AcDbSpline
 70
8
 71
3
 72
8
 73
4
 74
0
 40
0
 40
0
 40
0
 40
0
 40
1
 40
1
 40
1
 40
1
 10
142.457327
 20
562.040396
 30
0.0
 10
142.457327
 20
556.976789
 30
0.0
 10
145.158730
 20
552.297824
 30
0.0
 10
149.543942
 20
549.766020
 30
0.0
  0
SPLINE
  5
15f
100
AcDbEntity
  8
0
 62
7
100
AcDbSpline
 70
8
 71
3
 72
8
 73
4
 74
0
 40
0
 40
0
 40
0
 40
0
 40
1
 40
1
 40
1
 40
1
 10
149.543942
 20
549.766020
 30
0.0
 10
153.929154
 20
547.234217
 30
0.0
 10
159.331958
 20
547.234217
 30
0.0
 10
163.717170
 20
549.766020
 30
0.0
  0
SPLINE
  5
160
100
AcDbEntity
  8
0
 62
7
100
AcDbSpline
 70
8
 71
3
 72
8
 73
4
 74
0
 40
0
 40
0
 40
0
 40
0
 40
1
 40
1
 40
1
 40
1
 10
163.717170
 20
549.766020
 30
0.0
 10
168.102382
 20
552.297824
 30
0.0
 10
170.803784
 20
556.976789
 30
0.0
 10
170.803784
 20
562.040396
 30
0.0
  0
LWPOLYLINE
  5
161
100
AcDbEntity
  8
0
 62
7
100
AcDbPolyline
 90
1
 70
1
 10
227.496697
 20
562.040396
 30
0.0
  0
SPLINE
  5
162
100
AcDbEntity
  8
0
 62
7
100
AcDbSpline
 70
8
 71
3
 72
8
 73
4
 74
0
 40
0
 40
0
 40
0
 40
0
 40
1
 40
1
 40
1
 40
1
 10
165.134490
 20
519.520721
 30
0.0
 10
165.135766
 20
522.559736
 30
0.0
 10
163.515204
 20
525.368447
 30
0.0
 10
160.883553
 20
526.888323
 30
0.0
  0
SPLINE
  5
163
100
AcDbEntity
  8
0
 62
7
100
AcDbSpline
 70
8
 71
3
 72
8
 73
4
 74
0
 40
0
 40
0
 40
0
 40
0
 40
1
 40
1
 40
1
 40
1
 10
160.883553
 20
526.888323
 30
0.0
 10
158.251902
 20
528.408199
 30
0.0
 10
155.009205
 20
528.408199
 30
0.0
 10
152.377554
 20
526.888323
 30
0.0
  0
SPLINE
  5
164
100
AcDbEntity
  8
0
 62
7
100
AcDbSpline
 70
8
 71
3
 72
8
 73
4
 74
0
 40
0
 40
0
 40
0
 40
0
 40
1
 40
1
 40
1
 40
1
 10
152.377554
 20
526.888323
 30
0.0
 10
149.745903
 20
525.368447
 30
0.0
 10
148.125341
 20
522.559736
 30
0.0
 10
148.126617
 20
519.520721
 30
0.0
  0
SPLINE
  5
165
100
AcDbEntity
  8
0
 62
7
100
AcDbSpline
 70
8
 71
3
 72
8
 73
4
 74
0
 40
0
 40
0
 40
0
 40
0
 40
1
 40
1
 40
1
 40
1
 10
148.126617
 20
519.520721
 30
0.0
 10
148.125341
 20
516.481707
 30
0.0
 10
149.745903
 20
513.672995
 30
0.0
 10
152.377554
 20
512.153119
 30
0.0
  0
SPLINE
  5
166
100
AcDbEntity
  8
0
 62
7
100
AcDbSpline
 70
8
 71
3
 72
8
 73
4
 74
0
 40
0
 40
0
 40
0
 40
0
 40
1
 40
1
 40
1
 40
1
 10
152.377554
 20
512.153119
 30
0.0
 10
155.009205
 20
510.633244
 30
0.0
 10
158.251902
 20
510.633244
 30
0.0
 10
160.883553
 20
512.153119
 30
0.0
  0
SPLINE
  5
167
100
AcDbEntity
  8
0
 62
7
100
AcDbSpline
 70
8
 71
3
 72
8
 73
4
 74
0
 40
0
 40
0
 40
0
 40
0
 40
1
 40
1
 40
1
 40
1
 10
160.883553
 20
512.153119
 30
0.0
 10
163.515204
 20
513.672995
 30
0.0
 10
165.135766
 20
516.481707
 30
0.0
 10
165.134490
 20
519.520721
 30
0.0
  0
LWPOLYLINE
  5
168
100
AcDbEntity
  8
0
 62
7
100
AcDbPolyline
 90
1
 70
1
 10
170.803784
 20
562.040396
 30
0.0
  0
SPLINE
  5
169
100
AcDbEntity
  8
0
 62
7
100
AcDbSpline
 70
8
 71
3
 72
8
 73
4
 74
0
 40
0
 40
0
 40
0
 40
0
 40
1
 40
1
 40
1
 40
1
 10
221.827402
 20
519.520721
 30
0.0
 10
221.829614
 20
522.560358
 30
0.0
 10
220.209257
 20
525.370045
 30
0.0
 10
217.577222
 20
526.890502
 30
0.0
  0
SPLINE
  5
16a
100
AcDbEntity
  8
0
 62
7
100
AcDbSpline
 70
8
 71
3
 72
8
 73
4
 74
0
 40
0
 40
0
 40
0
 40
0
 40
1
 40
1
 40
1
 40
1
 10
217.577222
 20
526.890502
 30
0.0
 10
214.945187
 20
528.410959
 30
0.0
 10
211.701748
 20
528.410959
 30
0.0
 10
209.069713
 20
526.890502
 30
0.0
  0
SPLINE
  5
16b
100
AcDbEntity
  8
0
 62
7
100
AcDbSpline
 70
8
 71
3
 72
8
 73
4
 74
0
 40
0
 40
0
 40
0
 40
0
 40
1
 40
1
 40
1
 40
1
 10
209.069713
 20
526.890502
 30
0.0
 10
206.437678
 20
525.370045
 30
0.0
 10
204.817321
 20
522.560358
 30
0.0
 10
204.819533
 20
519.520721
 30
0.0
  0
SPLINE
  5
16c
100
AcDbEntity
  8
0
 62
7
100
AcDbSpline
 70
8
 71
3
 72
8
 73
4
 74
0
 40
0
 40
0
 40
0
 40
0
 40
1
 40
1
 40
1
 40
1
 10
204.819533
 20
519.520721
 30
0.0
 10
204.817321
 20
516.481084
 30
0.0
 10
206.437678
 20
513.671398
 30
0.0
 10
209.069713
 20
512.150941
 30
0.0
  0
SPLINE
  5
16d
100
AcDbEntity
  8
0
 62
7
100
AcDbSpline
 70
8
 71
3
 72
8
 73
4
 74
0
 40
0
 40
0
 40
0
 40
0
 40
1
 40
1
 40
1
 40
1
 10
209.069713
 20
512.150941
 30
0.0
 10
211.701748
 20
510.630484
 30
0.0
 10
214.945187
 20
510.630484
 30
0.0
 10
217.577222
 20
512.150941
 30
0.0
  0
SPLINE
  5
16e
100
AcDbEntity
  8
0
 62
7
100
AcDbSpline
 70
8
 71
3
 72
8
 73
4
 74
0
 40
0
 40
0
 40
0
 40
0
 40
1
 40
1
 40
1
 40
1
 10
217.577222
 20
512.150941
 30
0.0
 10
220.209257
 20
513.671398
 30
0.0
 10
221.829614
 20
516.481084
 30
0.0
 10
221.827402
 20
519.520721
 30
0.0
  0
LWPOLYLINE
  5
16f
100
AcDbEntity
  8
0
 62
7
100
AcDbPolyline
 90
1
 70
1
 10
165.134490
 20
519.520721
 30
0.0
  0
SPLINE
  5
170
100
AcDbEntity
  8
0
 62
7
100
AcDbSpline
 70
8
 71
3
 72
8
 73
4
 74
0
 40
0
 40
0
 40
0
 40
0
 40
1
 40
1
 40
1
 40
1
 10
278.520315
 20
519.520721
 30
0.0
 10
278.522526
 20
522.560358
 30
0.0
 10
276.902169
 20
525.370045
 30
0.0
 10
274.270134
 20
526.890502
 30
0.0
  0
SPLINE
  5
171
100
AcDbEntity
  8
0
 62
7
100
AcDbSpline
 70
8
 71
3
 72
8
 73
4
 74
0
 40
0
 40
0
 40
0
 40
0
 40
1
 40
1
 40
1
 40
1
 10
274.270134
 20
526.890502
 30
0.0
 10
271.638100
 20
528.410959
 30
0.0
 10
268.394660
 20
528.410959
 30
0.0
 10
265.762626
 20
526.890502
 30
0.0
  0
SPLINE
  5
172
100
AcDbEntity
  8
0
 62
7
100
AcDbSpline
 70
8
 71
3
 72
8
 73
4
 74
0
 40
0
 40
0
 40
0
 40
0
 40
1
 40
1
 40
1
 40
1
 10
265.762626
 20
526.890502
 30
0.0
 10
263.130591
 20
525.370045
 30
0.0
 10
261.510234
 20
522.560358
 30
0.0
 10
261.512445
 20
519.520721
 30
0.0
  0
SPLINE
  5
173
100
AcDbEntity
  8
0
 62
7
100
AcDbSpline
 70
8
 71
3
 72
8
 73
4
 74
0
 40
0
 40
0
 40
0
 40
0
 40
1
 40
1
 40
1
 40
1
 10
261.512445
 20
519.520721
 30
0.0
 10
261.510234
 20
516.481084
 30
0.0
 10
263.130591
 20
513.671398
 30
0.0
 10
265.762626
 20
512.150941
 30
0.0
  0
SPLINE
  5
174
100
AcDbEntity
  8
0
 62
7
100
AcDbSpline
 70
8
 71
3
 72
8
 73
4
 74
0
 40
0
 40
0
 40
0
 40
0
 40
1
 40
1
 40
1
 40
1
 10
265.762626
 20
512.150941
 30
0.0
 10
268.394660
 20
510.630484
 30
0.0
 10
271.638100
 20
510.630484
 30
0.0
 10
274.270134
 20
512.150941
 30
0.0
  0
SPLINE
  5
175
100
AcDbEntity
  8
0
 62
7
100
AcDbSpline
 70
8
 71
3
 72
8
 73
4
 74
0
 40
0
 40
0
 40
0
 40
0
 40
1
 40
1
 40
1
 40
1
 10
274.270134
 20
512.150941
 30
0.0
 10
276.902169
 20
513.671398
 30
0.0
 10
278.522526
 20
516.481084
 30
0.0
 10
278.520315
 20
519.520721
 30
0.0
  0
LWPOLYLINE
  5
176
100
AcDbEntity
  8
0
 62
7
100
AcDbPolyline
 90
1
 70
1
 10
221.827402
 20
519.520721
 30
0.0
  0
SPLINE
  5
177
100
AcDbEntity
  8
0
 62
7
100
AcDbSpline
 70
8
 71
3
 72
8
 73
4
 74
0
 40
0
 40
0
 40
0
 40
0
 40
1
 40
1
 40
1
 40
1
 10
335.213234
 20
519.520721
 30
0.0
 10
335.213234
 20
522.558885
 30
0.0
 10
333.592392
 20
525.366265
 30
0.0
 10
330.961265
 20
526.885347
 30
0.0
  0
SPLINE
  5
178
100
AcDbEntity
  8
0
 62
7
100
AcDbSpline
 70
8
 71
3
 72
8
 73
4
 74
0
 40
0
 40
0
 40
0
 40
0
 40
1
 40
1
 40
1
 40
1
 10
330.961265
 20
526.885347
 30
0.0
 10
328.330138
 20
528.404429
 30
0.0
 10
325.088455
 20
528.404429
 30
0.0
 10
322.457328
 20
526.885347
 30
0.0
  0
SPLINE
  5
179
100
AcDbEntity
  8
0
 62
7
100
AcDbSpline
 70
8
 71
3
 72
8
 73
4
 74
0
 40
0
 40
0
 40
0
 40
0
 40
1
 40
1
 40
1
 40
1
 10
322.457328
 20
526.885347
 30
0.0
 10
319.826200
 20
525.366265
 30
0.0
 10
318.205359
 20
522.558885
 30
0.0
 10
318.205360
 20
519.520721
 30
0.0
  0
SPLINE
  5
17a
100
AcDbEntity
  8
0
 62
7
100
AcDbSpline
 70
8
 71
3
 72
8
 73
4
 74
0
 40
0
 40
0
 40
0
 40
0
 40
1
 40
1
 40
1
 40
1
 10
318.205360
 20
519.520721
 30
0.0
 10
318.205360
 20
516.482557
 30
0.0
 10
319.826201
 20
513.675178
 30
0.0
 10
322.457328
 20
512.156096
 30
0.0
  0
SPLINE
  5
17b
100
AcDbEntity
  8
0
 62
7
100
AcDbSpline
 70
8
 71
3
 72
8
 73
4
 74
0
 40
0
 40
0
 40
0
 40
0
 40
1
 40
1
 40
1
 40
1
 10
322.457328
 20
512.156096
 30
0.0
 10
325.088456
 20
510.637014
 30
0.0
 10
328.330138
 20
510.637014
 30
0.0
 10
330.961266
 20
512.156096
 30
0.0
  0
SPLINE
  5
17c
100
AcDbEntity
  8
0
 62
7
100
AcDbSpline
 70
8
 71
3
 72
8
 73
4
 74
0
 40
0
 40
0
 40
0
 40
0
 40
1
 40
1
 40
1
 40
1
 10
330.961266
 20
512.156096
 30
0.0
 10
333.592393
 20
513.675178
 30
0.0
 10
335.213234
 20
516.482557
 30
0.0
 10
335.213234
 20
519.520721
 30
0.0
  0
LWPOLYLINE
  5
17d
100
AcDbEntity
  8
0
 62
7
100
AcDbPolyline
 90
1
 70
1
 10
278.520315
 20
519.520721
 30
0.0
  0
SPLINE
  5
17e
100
AcDbEntity
  8
0
 62
7
100
AcDbSpline
 70
8
 71
3
 72
8
 73
4
 74
0
 40
0
 40
0
 40
0
 40
0
 40
1
 40
1
 40
1
 40
1
 10
391.906146
 20
519.520721
 30
0.0
 10
391.906146
 20
522.558885
 30
0.0
 10
390.285305
 20
525.366265
 30
0.0
 10
387.654177
 20
526.885347
 30
0.0
  0
SPLINE
  5
17f
100
AcDbEntity
  8
0
 62
7
100
AcDbSpline
 70
8
 71
3
 72
8
 73
4
 74
0
 40
0
 40
0
 40
0
 40
0
 40
1
 40
1
 40
1
 40
1
 10
387.654177
 20
526.885347
 30
0.0
 10
385.023050
 20
528.404429
 30
0.0
 10
381.781367
 20
528.404429
 30
0.0
 10
379.150240
 20
526.885347
 30
0.0
  0
SPLINE
  5
180
100
AcDbEntity
  8
0
 62
7
100
AcDbSpline
 70
8
 71
3
 72
8
 73
4
 74
0
 40
0
 40
0
 40
0
 40
0
 40
1
 40
1
 40
1
 40
1
 10
379.150240
 20
526.885347
 30
0.0
 10
376.519113
 20
525.366265
 30
0.0
 10
374.898272
 20
522.558885
 30
0.0
 10
374.898272
 20
519.520721
 30
0.0
  0
SPLINE
  5
181
100
AcDbEntity
  8
0
 62
7
100
AcDbSpline
 70
8
 71
3
 72
8
 73
4
 74
0
 40
0
 40
0
 40
0
 40
0
 40
1
 40
1
 40
1
 40
1
 10
374.898272
 20
519.520721
 30
0.0
 10
374.898272
 20
516.482557
 30
0.0
 10
376.519114
 20
513.675178
 30
0.0
 10
379.150241
 20
512.156096
 30
0.0
  0
SPLINE
  5
182
100
AcDbEntity
  8
0
 62
7
100
AcDbSpline
 70
8
 71
3
 72
8
 73
4
 74
0
 40
0
 40
0
 40
0
 40
0
 40
1
 40
1
 40
1
 40
1
 10
379.150241
 20
512.156096
 30
0.0
 10
381.781368
 20
510.637014
 30
0.0
 10
385.023051
 20
510.637014
 30
0.0
 10
387.654178
 20
512.156096
 30
0.0
  0
SPLINE
  5
183
100
AcDbEntity
  8
0
 62
7
100
AcDbSpline
 70
8
 71
3
 72
8
 73
4
 74
0
 40
0
 40
0
 40
0
 40
0
 40
1
 40
1
 40
1
 40
1
 10
387.654178
 20
512.156096
 30
0.0
 10
390.285305
 20
513.675178
 30
0.0
 10
391.906147
 20
516.482557
 30
0.0
 10
391.906147
 20
519.520721
 30
0.0
  0
LWPOLYLINE
  5
184
100
AcDbEntity
  8
0
 62
7
100
AcDbPolyline
 90
1
 70
1
 10
335.213234
 20
519.520721
 30
0.0
  0
SPLINE
  5
185
100
AcDbEntity
  8
0
 62
7
100
AcDbSpline
 70
8
 71
3
 72
8
 73
4
 74
0
 40
0
 40
0
 40
0
 40
0
 40
1
 40
1
 40
1
 40
1
 10
448.599059
 20
519.520721
 30
0.0
 10
448.599059
 20
522.558885
 30
0.0
 10
446.978217
 20
525.366265
 30
0.0
 10
444.347090
 20
526.885347
 30
0.0
  0
SPLINE
  5
186
100
AcDbEntity
  8
0
 62
7
100
AcDbSpline
 70
8
 71
3
 72
8
 73
4
 74
0
 40
0
 40
0
 40
0
 40
0
 40
1
 40
1
 40
1
 40
1
 10
444.347090
 20
526.885347
 30
0.0
 10
441.715963
 20
528.404429
 30
0.0
 10
438.474280
 20
528.404429
 30
0.0
 10
435.843153
 20
526.885347
 30
0.0
  0
SPLINE
  5
187
100
AcDbEntity
  8
0
 62
7
100
AcDbSpline
 70
8
 71
3
 72
8
 73
4
 74
0
 40
0
 40
0
 40
0
 40
0
 40
1
 40
1
 40
1
 40
1
 10
435.843153
 20
526.885347
 30
0.0
 10
433.212025
 20
525.366265
 30
0.0
 10
431.591184
 20
522.558885
 30
0.0
 10
431.591185
 20
519.520721
 30
0.0
  0
SPLINE
  5
188
100
AcDbEntity
  8
0
 62
7
100
AcDbSpline
 70
8
 71
3
 72
8
 73
4
 74
0
 40
0
 40
0
 40
0
 40
0
 40
1
 40
1
 40
1
 40
1
 10
431.591185
 20
519.520721
 30
0.0
 10
431.591185
 20
516.482557
 30
0.0
 10
433.212026
 20
513.675178
 30
0.0
 10
435.843153
 20
512.156096
 30
0.0
  0
SPLINE
  5
189
100
AcDbEntity
  8
0
 62
7
100
AcDbSpline
 70
8
 71
3
 72
8
 73
4
 74
0
 40
0
 40
0
 40
0
 40
0
 40
1
 40
1
 40
1
 40
1
 10
435.843153
 20
512.156096
 30
0.0
 10
438.474281
 20
510.637014
 30
0.0
 10
441.715963
 20
510.637014
 30
0.0
 10
444.347091
 20
512.156096
 30
0.0
  0
SPLINE
  5
18a
100
AcDbEntity
  8
0
 62
7
100
AcDbSpline
 70
8
 71
3
 72
8
 73
4
 74
0
 40
0
 40
0
 40
0
 40
0
 40
1
 40
1
 40
1
 40
1
 10
444.347091
 20
512.156096
 30
0.0
 10
446.978218
 20
513.675178
 30
0.0
 10
448.599059
 20
516.482557
 30
0.0
 10
448.599059
 20
519.520721
 30
0.0
  0
LWPOLYLINE
  5
18b
100
AcDbEntity
  8
0
 62
7
100
AcDbPolyline
 90
1
 70
1
 10
391.906147
 20
519.520721
 30
0.0
  0
SPLINE
  5
18c
100
AcDbEntity
  8
0
 62
7
100
AcDbSpline
 70
8
 71
3
 72
8
 73
4
 74
0
 40
0
 40
0
 40
0
 40
0
 40
1
 40
1
 40
1
 40
1
 10
170.803784
 20
477.001046
 30
0.0
 10
170.803784
 20
482.064653
 30
0.0
 10
168.102382
 20
486.743619
 30
0.0
 10
163.717170
 20
489.275422
 30
0.0
  0
SPLINE
  5
18d
100
AcDbEntity
  8
0
 62
7
100
AcDbSpline
 70
8
 71
3
 72
8
 73
4
 74
0
 40
0
 40
0
 40
0
 40
0
 40
1
 40
1
 40
1
 40
1
 10
163.717170
 20
489.275422
 30
0.0
 10
159.331957
 20
491.807226
 30
0.0
 10
153.929153
 20
491.807226
 30
0.0
 10
149.543941
 20
489.275422
 30
0.0
  0
SPLINE
  5
18e
100
AcDbEntity
  8
0
 62
7
100
AcDbSpline
 70
8
 71
3
 72
8
 73
4
 74
0
 40
0
 40
0
 40
0
 40
0
 40
1
 40
1
 40
1
 40
1
 10
149.543941
 20
489.275422
 30
0.0
 10
145.158729
 20
486.743619
 30
0.0
 10
142.457327
 20
482.064653
 30
0.0
 10
142.457327
 20
477.001046
 30
0.0
  0
SPLINE
  5
18f
100
AcDbEntity
  8
0
 62
7
100
AcDbSpline
 70
8
 71
3
 72
8
 73
4
 74
0
 40
0
 40
0
 40
0
 40
0
 40
1
 40
1
 40
1
 40
1
 10
142.457327
 20
477.001046
 30
0.0
 10
142.457327
 20
471.937439
 30
0.0
 10
145.158730
 20
467.258474
 30
0.0
 10
149.543942
 20
464.726670
 30
0.0
  0
SPLINE
  5
190
100
AcDbEntity
  8
0
 62
7
100
AcDbSpline
 70
8
 71
3
 72
8
 73
4
 74
0
 40
0
 40
0
 40
0
 40
0
 40
1
 40
1
 40
1
 40
1
 10
149.543942
 20
464.726670
 30
0.0
 10
153.929154
 20
462.194867
 30
0.0
 10
159.331958
 20
462.194867
 30
0.0
 10
163.717170
 20
464.726670
 30
0.0
  0
SPLINE
  5
191
100
AcDbEntity
  8
0
 62
7
100
AcDbSpline
 70
8
 71
3
 72
8
 73
4
 74
0
 40
0
 40
0
 40
0
 40
0
 40
1
 40
1
 40
1
 40
1
 10
163.717170
 20
464.726670
 30
0.0
 10
168.102382
 20
467.258474
 30
0.0
 10
170.803784
 20
471.937439
 30
0.0
 10
170.803784
 20
477.001046
 30
0.0
  0
LWPOLYLINE
  5
192
100
AcDbEntity
  8
0
 62
7
100
AcDbPolyline
 90
1
 70
1
 10
448.599059
 20
519.520721
 30
0.0
  0
SPLINE
  5
193
100
AcDbEntity
  8
0
 62
7
100
AcDbSpline
 70
8
 71
3
 72
8
 73
4
 74
0
 40
0
 40
0
 40
0
 40
0
 40
1
 40
1
 40
1
 40
1
 10
227.496696
 20
477.001046
 30
0.0
 10
227.496696
 20
482.064653
 30
0.0
 10
224.795294
 20
486.743619
 30
0.0
 10
220.410082
 20
489.275422
 30
0.0
  0
SPLINE
  5
194
100
AcDbEntity
  8
0
 62
7
100
AcDbSpline
 70
8
 71
3
 72
8
 73
4
 74
0
 40
0
 40
0
 40
0
 40
0
 40
1
 40
1
 40
1
 40
1
 10
220.410082
 20
489.275422
 30
0.0
 10
216.024870
 20
491.807226
 30
0.0
 10
210.622065
 20
491.807226
 30
0.0
 10
206.236853
 20
489.275422
 30
0.0
  0
SPLINE
  5
195
100
AcDbEntity
  8
0
 62
7
100
AcDbSpline
 70
8
 71
3
 72
8
 73
4
 74
0
 40
0
 40
0
 40
0
 40
0
 40
1
 40
1
 40
1
 40
1
 10
206.236853
 20
489.275422
 30
0.0
 10
201.851641
 20
486.743619
 30
0.0
 10
199.150239
 20
482.064653
 30
0.0
 10
199.150240
 20
477.001046
 30
0.0
  0
SPLINE
  5
196
100
AcDbEntity
  8
0
 62
7
100
AcDbSpline
 70
8
 71
3
 72
8
 73
4
 74
0
 40
0
 40
0
 40
0
 40
0
 40
1
 40
1
 40
1
 40
1
 10
199.150240
 20
477.001046
 30
0.0
 10
199.150240
 20
471.937439
 30
0.0
 10
201.851642
 20
467.258474
 30
0.0
 10
206.236854
 20
464.726670
 30
0.0
  0
SPLINE
  5
197
100
AcDbEntity
  8
0
 62
7
100
AcDbSpline
 70
8
 71
3
 72
8
 73
4
 74
0
 40
0
 40
0
 40
0
 40
0
 40
1
 40
1
 40
1
 40
1
 10
206.236854
 20
464.726670
 30
0.0
 10
210.622066
 20
462.194867
 30
0.0
 10
216.024870
 20
462.194867
 30
0.0
 10
220.410082
 20
464.726670
 30
0.0
  0
SPLINE
  5
198
100
AcDbEntity
  8
0
 62
7
100
AcDbSpline
 70
8
 71
3
 72
8
 73
4
 74
0
 40
0
 40
0
 40
0
 40
0
 40
1
 40
1
 40
1
 40
1
 10
220.410082
 20
464.726670
 30
0.0
 10
224.795295
 20
467.258474
 30
0.0
 10
227.496697
 20
471.937439
 30
0.0
 10
227.496697
 20
477.001046
 30
0.0
  0
LWPOLYLINE
  5
199
100
AcDbEntity
  8
0
 62
7
100
AcDbPolyline
 90
1
 70
1
 10
170.803784
 20
477.001046
 30
0.0
  0
SPLINE
  5
19a
100
AcDbEntity
  8
0
 62
7
100
AcDbSpline
 70
8
 71
3
 72
8
 73
4
 74
0
 40
0
 40
0
 40
0
 40
0
 40
1
 40
1
 40
1
 40
1
 10
170.803784
 20
420.308171
 30
0.0
 10
170.803784
 20
425.371778
 30
0.0
 10
168.102382
 20
430.050744
 30
0.0
 10
163.717170
 20
432.582547
 30
0.0
  0
SPLINE
  5
19b
100
AcDbEntity
  8
0
 62
7
100
AcDbSpline
 70
8
 71
3
 72
8
 73
4
 74
0
 40
0
 40
0
 40
0
 40
0
 40
1
 40
1
 40
1
 40
1
 10
163.717170
 20
432.582547
 30
0.0
 10
159.331957
 20
435.114351
 30
0.0
 10
153.929153
 20
435.114351
 30
0.0
 10
149.543941
 20
432.582547
 30
0.0
  0
SPLINE
  5
19c
100
AcDbEntity
  8
0
 62
7
100
AcDbSpline
 70
8
 71
3
 72
8
 73
4
 74
0
 40
0
 40
0
 40
0
 40
0
 40
1
 40
1
 40
1
 40
1
 10
149.543941
 20
432.582547
 30
0.0
 10
145.158729
 20
430.050744
 30
0.0
 10
142.457327
 20
425.371778
 30
0.0
 10
142.457327
 20
420.308171
 30
0.0
  0
SPLINE
  5
19d
100
AcDbEntity
  8
0
 62
7
100
AcDbSpline
 70
8
 71
3
 72
8
 73
4
 74
0
 40
0
 40
0
 40
0
 40
0
 40
1
 40
1
 40
1
 40
1
 10
142.457327
 20
420.308171
 30
0.0
 10
142.457327
 20
415.244564
 30
0.0
 10
145.158730
 20
410.565599
 30
0.0
 10
149.543942
 20
408.033795
 30
0.0
  0
SPLINE
  5
19e
100
AcDbEntity
  8
0
 62
7
100
AcDbSpline
 70
8
 71
3
 72
8
 73
4
 74
0
 40
0
 40
0
 40
0
 40
0
 40
1
 40
1
 40
1
 40
1
 10
149.543942
 20
408.033795
 30
0.0
 10
153.929154
 20
405.501992
 30
0.0
 10
159.331958
 20
405.501992
 30
0.0
 10
163.717170
 20
408.033795
 30
0.0
  0
SPLINE
  5
19f
100
AcDbEntity
  8
0
 62
7
100
AcDbSpline
 70
8
 71
3
 72
8
 73
4
 74
0
 40
0
 40
0
 40
0
 40
0
 40
1
 40
1
 40
1
 40
1
 10
163.717170
 20
408.033795
 30
0.0
 10
168.102382
 20
410.565599
 30
0.0
 10
170.803784
 20
415.244564
 30
0.0
 10
170.803784
 20
420.308171
 30
0.0
  0
LWPOLYLINE
  5
1a0
100
AcDbEntity
  8
0
 62
7
100
AcDbPolyline
 90
1
 70
1
 10
227.496697
 20
477.001046
 30
0.0
  0
SPLINE
  5
1a1
100
AcDbEntity
  8
0
 62
7
100
AcDbSpline
 70
8
 71
3
 72
8
 73
4
 74
0
 40
0
 40
0
 40
0
 40
0
 40
1
 40
1
 40
1
 40
1
 10
221.827402
 20
420.308171
 30
0.0
 10
221.829614
 20
423.347808
 30
0.0
 10
220.209257
 20
426.157495
 30
0.0
 10
217.577222
 20
427.677952
 30
0.0
  0
SPLINE
  5
1a2
100
AcDbEntity
  8
0
 62
7
100
AcDbSpline
 70
8
 71
3
 72
8
 73
4
 74
0
 40
0
 40
0
 40
0
 40
0
 40
1
 40
1
 40
1
 40
1
 10
217.577222
 20
427.677952
 30
0.0
 10
214.945187
 20
429.198409
 30
0.0
 10
211.701748
 20
429.198409
 30
0.0
 10
209.069713
 20
427.677952
 30
0.0
  0
SPLINE
  5
1a3
100
AcDbEntity
  8
0
 62
7
100
AcDbSpline
 70
8
 71
3
 72
8
 73
4
 74
0
 40
0
 40
0
 40
0
 40
0
 40
1
 40
1
 40
1
 40
1
 10
209.069713
 20
427.677952
 30
0.0
 10
206.437678
 20
426.157495
 30
0.0
 10
204.817321
 20
423.347808
 30
0.0
 10
204.819533
 20
420.308171
 30
0.0
  0
SPLINE
  5
1a4
100
AcDbEntity
  8
0
 62
7
100
AcDbSpline
 70
8
 71
3
 72
8
 73
4
 74
0
 40
0
 40
0
 40
0
 40
0
 40
1
 40
1
 40
1
 40
1
 10
204.819533
 20
420.308171
 30
0.0
 10
204.817321
 20
417.268534
 30
0.0
 10
206.437678
 20
414.458848
 30
0.0
 10
209.069713
 20
412.938391
 30
0.0
  0
SPLINE
  5
1a5
100
AcDbEntity
  8
0
 62
7
100
AcDbSpline
 70
8
 71
3
 72
8
 73
4
 74
0
 40
0
 40
0
 40
0
 40
0
 40
1
 40
1
 40
1
 40
1
 10
209.069713
 20
412.938391
 30
0.0
 10
211.701748
 20
411.417934
 30
0.0
 10
214.945187
 20
411.417934
 30
0.0
 10
217.577222
 20
412.938391
 30
0.0
  0
SPLINE
  5
1a6
100
AcDbEntity
  8
0
 62
7
100
AcDbSpline
 70
8
 71
3
 72
8
 73
4
 74
0
 40
0
 40
0
 40
0
 40
0
 40
1
 40
1
 40
1
 40
1
 10
217.577222
 20
412.938391
 30
0.0
 10
220.209257
 20
414.458848
 30
0.0
 10
221.829614
 20
417.268534
 30
0.0
 10
221.827402
 20
420.308171
 30
0.0
  0
LWPOLYLINE
  5
1a7
100
AcDbEntity
  8
0
 62
7
100
AcDbPolyline
 90
1
 70
1
 10
170.803784
 20
420.308171
 30
0.0
  0
SPLINE
  5
1a8
100
AcDbEntity
  8
0
 62
7
100
AcDbSpline
 70
8
 71
3
 72
8
 73
4
 74
0
 40
0
 40
0
 40
0
 40
0
 40
1
 40
1
 40
1
 40
1
 10
284.189609
 20
420.308171
 30
0.0
 10
284.189609
 20
425.371778
 30
0.0
 10
281.488206
 20
430.050744
 30
0.0
 10
277.102994
 20
432.582547
 30
0.0
  0
SPLINE
  5
1a9
100
AcDbEntity
  8
0
 62
7
100
AcDbSpline
 70
8
 71
3
 72
8
 73
4
 74
0
 40
0
 40
0
 40
0
 40
0
 40
1
 40
1
 40
1
 40
1
 10
277.102994
 20
432.582547
 30
0.0
 10
272.717782
 20
435.114351
 30
0.0
 10
267.314978
 20
435.114351
 30
0.0
 10
262.929766
 20
432.582547
 30
0.0
  0
SPLINE
  5
1aa
100
AcDbEntity
  8
0
 62
7
100
AcDbSpline
 70
8
 71
3
 72
8
 73
4
 74
0
 40
0
 40
0
 40
0
 40
0
 40
1
 40
1
 40
1
 40
1
 10
262.929766
 20
432.582547
 30
0.0
 10
258.544554
 20
430.050744
 30
0.0
 10
255.843151
 20
425.371778
 30
0.0
 10
255.843152
 20
420.308171
 30
0.0
  0
SPLINE
  5
1ab
100
AcDbEntity
  8
0
 62
7
100
AcDbSpline
 70
8
 71
3
 72
8
 73
4
 74
0
 40
0
 40
0
 40
0
 40
0
 40
1
 40
1
 40
1
 40
1
 10
255.843152
 20
420.308171
 30
0.0
 10
255.843152
 20
415.244564
 30
0.0
 10
258.544554
 20
410.565599
 30
0.0
 10
262.929766
 20
408.033795
 30
0.0
  0
SPLINE
  5
1ac
100
AcDbEntity
  8
0
 62
7
100
AcDbSpline
 70
8
 71
3
 72
8
 73
4
 74
0
 40
0
 40
0
 40
0
 40
0
 40
1
 40
1
 40
1
 40
1
 10
262.929766
 20
408.033795
 30
0.0
 10
267.314979
 20
405.501992
 30
0.0
 10
272.717783
 20
405.501992
 30
0.0
 10
277.102995
 20
408.033795
 30
0.0
  0
SPLINE
  5
1ad
100
AcDbEntity
  8
0
 62
7
100
AcDbSpline
 70
8
 71
3
 72
8
 73
4
 74
0
 40
0
 40
0
 40
0
 40
0
 40
1
 40
1
 40
1
 40
1
 10
277.102995
 20
408.033795
 30
0.0
 10
281.488207
 20
410.565599
 30
0.0
 10
284.189609
 20
415.244564
 30
0.0
 10
284.189609
 20
420.308171
 30
0.0
  0
LWPOLYLINE
  5
1ae
100
AcDbEntity
  8
0
 62
7
100
AcDbPolyline
 90
1
 70
1
 10
221.827402
 20
420.308171
 30
0.0
  0
SPLINE
  5
1af
100
AcDbEntity
  8
0
 62
7
100
AcDbSpline
 70
8
 71
3
 72
8
 73
4
 74
0
 40
0
 40
0
 40
0
 40
0
 40
1
 40
1
 40
1
 40
1
 10
340.882522
 20
420.308171
 30
0.0
 10
340.885377
 20
425.373679
 30
0.0
 10
338.184600
 20
430.055624
 30
0.0
 10
333.798216
 20
432.589202
 30
0.0
  0
SPLINE
  5
1b0
100
AcDbEntity
  8
0
 62
7
100
AcDbSpline
 70
8
 71
3
 72
8
 73
4
 74
0
 40
0
 40
0
 40
0
 40
0
 40
1
 40
1
 40
1
 40
1
 10
333.798216
 20
432.589202
 30
0.0
 10
329.411832
 20
435.122781
 30
0.0
 10
324.006760
 20
435.122781
 30
0.0
 10
319.620377
 20
432.589202
 30
0.0
  0
SPLINE
  5
1b1
100
AcDbEntity
  8
0
 62
7
100
AcDbSpline
 70
8
 71
3
 72
8
 73
4
 74
0
 40
0
 40
0
 40
0
 40
0
 40
1
 40
1
 40
1
 40
1
 10
319.620377
 20
432.589202
 30
0.0
 10
315.233993
 20
430.055624
 30
0.0
 10
312.533216
 20
425.373679
 30
0.0
 10
312.536070
 20
420.308171
 30
0.0
  0
SPLINE
  5
1b2
100
AcDbEntity
  8
0
 62
7
100
AcDbSpline
 70
8
 71
3
 72
8
 73
4
 74
0
 40
0
 40
0
 40
0
 40
0
 40
1
 40
1
 40
1
 40
1
 10
312.536070
 20
420.308171
 30
0.0
 10
312.533216
 20
415.242663
 30
0.0
 10
315.233993
 20
410.560719
 30
0.0
 10
319.620377
 20
408.027140
 30
0.0
  0
SPLINE
  5
1b3
100
AcDbEntity
  8
0
 62
7
100
AcDbSpline
 70
8
 71
3
 72
8
 73
4
 74
0
 40
0
 40
0
 40
0
 40
0
 40
1
 40
1
 40
1
 40
1
 10
319.620377
 20
408.027140
 30
0.0
 10
324.006760
 20
405.493562
 30
0.0
 10
329.411832
 20
405.493562
 30
0.0
 10
333.798216
 20
408.027140
 30
0.0
  0
SPLINE
  5
1b4
100
AcDbEntity
  8
0
 62
7
100
AcDbSpline
 70
8
 71
3
 72
8
 73
4
 74
0
 40
0
 40
0
 40
0
 40
0
 40
1
 40
1
 40
1
 40
1
 10
333.798216
 20
408.027140
 30
0.0
 10
338.184600
 20
410.560719
 30
0.0
 10
340.885377
 20
415.242663
 30
0.0
 10
340.882522
 20
420.308171
 30
0.0
  0
LWPOLYLINE
  5
1b5
100
AcDbEntity
  8
0
 62
7
100
AcDbPolyline
 90
1
 70
1
 10
284.189609
 20
420.308171
 30
0.0
  0
SPLINE
  5
1b6
100
AcDbEntity
  8
0
 62
7
100
AcDbSpline
 70
8
 71
3
 72
8
 73
4
 74
0
 40
0
 40
0
 40
0
 40
0
 40
1
 40
1
 40
1
 40
1
 10
397.575435
 20
420.308171
 30
0.0
 10
397.578289
 20
425.373679
 30
0.0
 10
394.877512
 20
430.055624
 30
0.0
 10
390.491128
 20
432.589202
 30
0.0
  0
SPLINE
  5
1b7
100
AcDbEntity
  8
0
 62
7
100
AcDbSpline
 70
8
 71
3
 72
8
 73
4
 74
0
 40
0
 40
0
 40
0
 40
0
 40
1
 40
1
 40
1
 40
1
 10
390.491128
 20
432.589202
 30
0.0
 10
386.104745
 20
435.122781
 30
0.0
 10
380.699673
 20
435.122781
 30
0.0
 10
376.313289
 20
432.589202
 30
0.0
  0
SPLINE
  5
1b8
100
AcDbEntity
  8
0
 62
7
100
AcDbSpline
 70
8
 71
3
 72
8
 73
4
 74
0
 40
0
 40
0
 40
0
 40
0
 40
1
 40
1
 40
1
 40
1
 10
376.313289
 20
432.589202
 30
0.0
 10
371.926905
 20
430.055624
 30
0.0
 10
369.226128
 20
425.373679
 30
0.0
 10
369.228982
 20
420.308171
 30
0.0
  0
SPLINE
  5
1b9
100
AcDbEntity
  8
0
 62
7
100
AcDbSpline
 70
8
 71
3
 72
8
 73
4
 74
0
 40
0
 40
0
 40
0
 40
0
 40
1
 40
1
 40
1
 40
1
 10
369.228982
 20
420.308171
 30
0.0
 10
369.226128
 20
415.242663
 30
0.0
 10
371.926905
 20
410.560719
 30
0.0
 10
376.313289
 20
408.027140
 30
0.0
  0
SPLINE
  5
1ba
100
AcDbEntity
  8
0
 62
7
100
AcDbSpline
 70
8
 71
3
 72
8
 73
4
 74
0
 40
0
 40
0
 40
0
 40
0
 40
1
 40
1
 40
1
 40
1
 10
376.313289
 20
408.027140
 30
0.0
 10
380.699673
 20
405.493562
 30
0.0
 10
386.104745
 20
405.493562
 30
0.0
 10
390.491128
 20
408.027140
 30
0.0
  0
SPLINE
  5
1bb
100
AcDbEntity
  8
0
 62
7
100
AcDbSpline
 70
8
 71
3
 72
8
 73
4
 74
0
 40
0
 40
0
 40
0
 40
0
 40
1
 40
1
 40
1
 40
1
 10
390.491128
 20
408.027140
 30
0.0
 10
394.877512
 20
410.560719
 30
0.0
 10
397.578289
 20
415.242663
 30
0.0
 10
397.575435
 20
420.308171
 30
0.0
  0
LWPOLYLINE
  5
1bc
100
AcDbEntity
  8
0
 62
7
100
AcDbPolyline
 90
1
 70
1
 10
340.882522
 20
420.308171
 30
0.0
  0
SPLINE
  5
1bd
100
AcDbEntity
  8
0
 62
7
100
AcDbSpline
 70
8
 71
3
 72
8
 73
4
 74
0
 40
0
 40
0
 40
0
 40
0
 40
1
 40
1
 40
1
 40
1
 10
454.268347
 20
420.308171
 30
0.0
 10
454.271202
 20
425.373679
 30
0.0
 10
451.570425
 20
430.055624
 30
0.0
 10
447.184041
 20
432.589202
 30
0.0
  0
SPLINE
  5
1be
100
AcDbEntity
  8
0
 62
7
100
AcDbSpline
 70
8
 71
3
 72
8
 73
4
 74
0
 40
0
 40
0
 40
0
 40
0
 40
1
 40
1
 40
1
 40
1
 10
447.184041
 20
432.589202
 30
0.0
 10
442.797657
 20
435.122781
 30
0.0
 10
437.392585
 20
435.122781
 30
0.0
 10
433.006202
 20
432.589202
 30
0.0
  0
SPLINE
  5
1bf
100
AcDbEntity
  8
0
 62
7
100
AcDbSpline
 70
8
 71
3
 72
8
 73
4
 74
0
 40
0
 40
0
 40
0
 40
0
 40
1
 40
1
 40
1
 40
1
 10
433.006202
 20
432.589202
 30
0.0
 10
428.619818
 20
430.055624
 30
0.0
 10
425.919041
 20
425.373679
 30
0.0
 10
425.921895
 20
420.308171
 30
0.0
  0
SPLINE
  5
1c0
100
AcDbEntity
  8
0
 62
7
100
AcDbSpline
 70
8
 71
3
 72
8
 73
4
 74
0
 40
0
 40
0
 40
0
 40
0
 40
1
 40
1
 40
1
 40
1
 10
425.921895
 20
420.308171
 30
0.0
 10
425.919041
 20
415.242663
 30
0.0
 10
428.619818
 20
410.560719
 30
0.0
 10
433.006202
 20
408.027140
 30
0.0
  0
SPLINE
  5
1c1
100
AcDbEntity
  8
0
 62
7
100
AcDbSpline
 70
8
 71
3
 72
8
 73
4
 74
0
 40
0
 40
0
 40
0
 40
0
 40
1
 40
1
 40
1
 40
1
 10
433.006202
 20
408.027140
 30
0.0
 10
437.392585
 20
405.493562
 30
0.0
 10
442.797657
 20
405.493562
 30
0.0
 10
447.184041
 20
408.027140
 30
0.0
  0
SPLINE
  5
1c2
100
AcDbEntity
  8
0
 62
7
100
AcDbSpline
 70
8
 71
3
 72
8
 73
4
 74
0
 40
0
 40
0
 40
0
 40
0
 40
1
 40
1
 40
1
 40
1
 10
447.184041
 20
408.027140
 30
0.0
 10
451.570425
 20
410.560719
 30
0.0
 10
454.271202
 20
415.242663
 30
0.0
 10
454.268347
 20
420.308171
 30
0.0
  0
LWPOLYLINE
  5
1c3
100
AcDbEntity
  8
0
 62
7
100
AcDbPolyline
 90
1
 70
1
 10
397.575435
 20
420.308171
 30
0.0
  0
SPLINE
  5
1c4
100
AcDbEntity
  8
0
 62
7
100
AcDbSpline
 70
8
 71
3
 72
8
 73
4
 74
0
 40
0
 40
0
 40
0
 40
0
 40
1
 40
1
 40
1
 40
1
 10
278.520315
 20
377.788421
 30
0.0
 10
278.522526
 20
380.828058
 30
0.0
 10
276.902169
 20
383.637745
 30
0.0
 10
274.270134
 20
385.158202
 30
0.0
  0
SPLINE
  5
1c5
100
AcDbEntity
  8
0
 62
7
100
AcDbSpline
 70
8
 71
3
 72
8
 73
4
 74
0
 40
0
 40
0
 40
0
 40
0
 40
1
 40
1
 40
1
 40
1
 10
274.270134
 20
385.158202
 30
0.0
 10
271.638100
 20
386.678659
 30
0.0
 10
268.394660
 20
386.678659
 30
0.0
 10
265.762626
 20
385.158202
 30
0.0
  0
SPLINE
  5
1c6
100
AcDbEntity
  8
0
 62
7
100
AcDbSpline
 70
8
 71
3
 72
8
 73
4
 74
0
 40
0
 40
0
 40
0
 40
0
 40
1
 40
1
 40
1
 40
1
 10
265.762626
 20
385.158202
 30
0.0
 10
263.130591
 20
383.637745
 30
0.0
 10
261.510234
 20
380.828058
 30
0.0
 10
261.512445
 20
377.788421
 30
0.0
  0
SPLINE
  5
1c7
100
AcDbEntity
  8
0
 62
7
100
AcDbSpline
 70
8
 71
3
 72
8
 73
4
 74
0
 40
0
 40
0
 40
0
 40
0
 40
1
 40
1
 40
1
 40
1
 10
261.512445
 20
377.788421
 30
0.0
 10
261.510234
 20
374.748784
 30
0.0
 10
263.130591
 20
371.939098
 30
0.0
 10
265.762626
 20
370.418641
 30
0.0
  0
SPLINE
  5
1c8
100
AcDbEntity
  8
0
 62
7
100
AcDbSpline
 70
8
 71
3
 72
8
 73
4
 74
0
 40
0
 40
0
 40
0
 40
0
 40
1
 40
1
 40
1
 40
1
 10
265.762626
 20
370.418641
 30
0.0
 10
268.394660
 20
368.898184
 30
0.0
 10
271.638100
 20
368.898184
 30
0.0
 10
274.270134
 20
370.418641
 30
0.0
  0
SPLINE
  5
1c9
100
AcDbEntity
  8
0
 62
7
100
AcDbSpline
 70
8
 71
3
 72
8
 73
4
 74
0
 40
0
 40
0
 40
0
 40
0
 40
1
 40
1
 40
1
 40
1
 10
274.270134
 20
370.418641
 30
0.0
 10
276.902169
 20
371.939098
 30
0.0
 10
278.522526
 20
374.748784
 30
0.0
 10
278.520315
 20
377.788421
 30
0.0
  0
LWPOLYLINE
  5
1ca
100
AcDbEntity
  8
0
 62
7
100
AcDbPolyline
 90
1
 70
1
 10
454.268347
 20
420.308171
 30
0.0
  0
SPLINE
  5
1cb
100
AcDbEntity
  8
0
 62
7
100
AcDbSpline
 70
8
 71
3
 72
8
 73
4
 74
0
 40
0
 40
0
 40
0
 40
0
 40
1
 40
1
 40
1
 40
1
 10
335.213234
 20
377.788421
 30
0.0
 10
335.213234
 20
380.826585
 30
0.0
 10
333.592392
 20
383.633965
 30
0.0
 10
330.961265
 20
385.153047
 30
0.0
  0
SPLINE
  5
1cc
100
AcDbEntity
  8
0
 62
7
100
AcDbSpline
 70
8
 71
3
 72
8
 73
4
 74
0
 40
0
 40
0
 40
0
 40
0
 40
1
 40
1
 40
1
 40
1
 10
330.961265
 20
385.153047
 30
0.0
 10
328.330138
 20
386.672129
 30
0.0
 10
325.088455
 20
386.672129
 30
0.0
 10
322.457328
 20
385.153047
 30
0.0
  0
SPLINE
  5
1cd
100
AcDbEntity
  8
0
 62
7
100
AcDbSpline
 70
8
 71
3
 72
8
 73
4
 74
0
 40
0
 40
0
 40
0
 40
0
 40
1
 40
1
 40
1
 40
1
 10
322.457328
 20
385.153047
 30
0.0
 10
319.826200
 20
383.633965
 30
0.0
 10
318.205359
 20
380.826585
 30
0.0
 10
318.205360
 20
377.788421
 30
0.0
  0
SPLINE
  5
1ce
100
AcDbEntity
  8
0
 62
7
100
AcDbSpline
 70
8
 71
3
 72
8
 73
4
 74
0
 40
0
 40
0
 40
0
 40
0
 40
1
 40
1
 40
1
 40
1
 10
318.205360
 20
377.788421
 30
0.0
 10
318.205360
 20
374.750257
 30
0.0
 10
319.826201
 20
371.942878
 30
0.0
 10
322.457328
 20
370.423796
 30
0.0
  0
SPLINE
  5
1cf
100
AcDbEntity
  8
0
 62
7
100
AcDbSpline
 70
8
 71
3
 72
8
 73
4
 74
0
 40
0
 40
0
 40
0
 40
0
 40
1
 40
1
 40
1
 40
1
 10
322.457328
 20
370.423796
 30
0.0
 10
325.088456
 20
368.904714
 30
0.0
 10
328.330138
 20
368.904714
 30
0.0
 10
330.961266
 20
370.423796
 30
0.0
  0
SPLINE
  5
1d0
100
AcDbEntity
  8
0
 62
7
100
AcDbSpline
 70
8
 71
3
 72
8
 73
4
 74
0
 40
0
 40
0
 40
0
 40
0
 40
1
 40
1
 40
1
 40
1
 10
330.961266
 20
370.423796
 30
0.0
 10
333.592393
 20
371.942878
 30
0.0
 10
335.213234
 20
374.750257
 30
0.0
 10
335.213234
 20
377.788421
 30
0.0
  0
LWPOLYLINE
  5
1d1
100
AcDbEntity
  8
0
 62
7
100
AcDbPolyline
 90
1
 70
1
 10
278.520315
 20
377.788421
 30
0.0
  0
SPLINE
  5
1d2
100
AcDbEntity
  8
0
 62
7
100
AcDbSpline
 70
8
 71
3
 72
8
 73
4
 74
0
 40
0
 40
0
 40
0
 40
0
 40
1
 40
1
 40
1
 40
1
 10
391.906146
 20
377.788421
 30
0.0
 10
391.906146
 20
380.826585
 30
0.0
 10
390.285305
 20
383.633965
 30
0.0
 10
387.654177
 20
385.153047
 30
0.0
  0
SPLINE
  5
1d3
100
AcDbEntity
  8
0
 62
7
100
AcDbSpline
 70
8
 71
3
 72
8
 73
4
 74
0
 40
0
 40
0
 40
0
 40
0
 40
1
 40
1
 40
1
 40
1
 10
387.654177
 20
385.153047
 30
0.0
 10
385.023050
 20
386.672129
 30
0.0
 10
381.781367
 20
386.672129
 30
0.0
 10
379.150240
 20
385.153047
 30
0.0
  0
SPLINE
  5
1d4
100
AcDbEntity
  8
0
 62
7
100
AcDbSpline
 70
8
 71
3
 72
8
 73
4
 74
0
 40
0
 40
0
 40
0
 40
0
 40
1
 40
1
 40
1
 40
1
 10
379.150240
 20
385.153047
 30
0.0
 10
376.519113
 20
383.633965
 30
0.0
 10
374.898272
 20
380.826585
 30
0.0
 10
374.898272
 20
377.788421
 30
0.0
  0
SPLINE
  5
1d5
100
AcDbEntity
  8
0
 62
7
100
AcDbSpline
 70
8
 71
3
 72
8
 73
4
 74
0
 40
0
 40
0
 40
0
 40
0
 40
1
 40
1
 40
1
 40
1
 10
374.898272
 20
377.788421
 30
0.0
 10
374.898272
 20
374.750257
 30
0.0
 10
376.519114
 20
371.942878
 30
0.0
 10
379.150241
 20
370.423796
 30
0.0
  0
SPLINE
  5
1d6
100
AcDbEntity
  8
0
 62
7
100
AcDbSpline
 70
8
 71
3
 72
8
 73
4
 74
0
 40
0
 40
0
 40
0
 40
0
 40
1
 40
1
 40
1
 40
1
 10
379.150241
 20
370.423796
 30
0.0
 10
381.781368
 20
368.904714
 30
0.0
 10
385.023051
 20
368.904714
 30
0.0
 10
387.654178
 20
370.423796
 30
0.0
  0
SPLINE
  5
1d7
100
AcDbEntity
  8
0
 62
7
100
AcDbSpline
 70
8
 71
3
 72
8
 73
4
 74
0
 40
0
 40
0
 40
0
 40
0
 40
1
 40
1
 40
1
 40
1
 10
387.654178
 20
370.423796
 30
0.0
 10
390.285305
 20
371.942878
 30
0.0
 10
391.906147
 20
374.750257
 30
0.0
 10
391.906147
 20
377.788421
 30
0.0
  0
LWPOLYLINE
  5
1d8
100
AcDbEntity
  8
0
 62
7
100
AcDbPolyline
 90
1
 70
1
 10
335.213234
 20
377.788421
 30
0.0
  0
SPLINE
  5
1d9
100
AcDbEntity
  8
0
 62
7
100
AcDbSpline
 70
8
 71
3
 72
8
 73
4
 74
0
 40
0
 40
0
 40
0
 40
0
 40
1
 40
1
 40
1
 40
1
 10
448.599059
 20
377.788421
 30
0.0
 10
448.599059
 20
380.826585
 30
0.0
 10
446.978217
 20
383.633965
 30
0.0
 10
444.347090
 20
385.153047
 30
0.0
  0
SPLINE
  5
1da
100
AcDbEntity
  8
0
 62
7
100
AcDbSpline
 70
8
 71
3
 72
8
 73
4
 74
0
 40
0
 40
0
 40
0
 40
0
 40
1
 40
1
 40
1
 40
1
 10
444.347090
 20
385.153047
 30
0.0
 10
441.715963
 20
386.672129
 30
0.0
 10
438.474280
 20
386.672129
 30
0.0
 10
435.843153
 20
385.153047
 30
0.0
  0
SPLINE
  5
1db
100
AcDbEntity
  8
0
 62
7
100
AcDbSpline
 70
8
 71
3
 72
8
 73
4
 74
0
 40
0
 40
0
 40
0
 40
0
 40
1
 40
1
 40
1
 40
1
 10
435.843153
 20
385.153047
 30
0.0
 10
433.212025
 20
383.633965
 30
0.0
 10
431.591184
 20
380.826585
 30
0.0
 10
431.591185
 20
377.788421
 30
0.0
  0
SPLINE
  5
1dc
100
AcDbEntity
  8
0
 62
7
100
AcDbSpline
 70
8
 71
3
 72
8
 73
4
 74
0
 40
0
 40
0
 40
0
 40
0
 40
1
 40
1
 40
1
 40
1
 10
431.591185
 20
377.788421
 30
0.0
 10
431.591185
 20
374.750257
 30
0.0
 10
433.212026
 20
371.942878
 30
0.0
 10
435.843153
 20
370.423796
 30
0.0
  0
SPLINE
  5
1dd
100
AcDbEntity
  8
0
 62
7
100
AcDbSpline
 70
8
 71
3
 72
8
 73
4
 74
0
 40
0
 40
0
 40
0
 40
0
 40
1
 40
1
 40
1
 40
1
 10
435.843153
 20
370.423796
 30
0.0
 10
438.474281
 20
368.904714
 30
0.0
 10
441.715963
 20
368.904714
 30
0.0
 10
444.347091
 20
370.423796
 30
0.0
  0
SPLINE
  5
1de
100
AcDbEntity
  8
0
 62
7
100
AcDbSpline
 70
8
 71
3
 72
8
 73
4
 74
0
 40
0
 40
0
 40
0
 40
0
 40
1
 40
1
 40
1
 40
1
 10
444.347091
 20
370.423796
 30
0.0
 10
446.978218
 20
371.942878
 30
0.0
 10
448.599059
 20
374.750257
 30
0.0
 10
448.599059
 20
377.788421
 30
0.0
  0
LWPOLYLINE
  5
1df
100
AcDbEntity
  8
0
 62
7
100
AcDbPolyline
 90
1
 70
1
 10
391.906147
 20
377.788421
 30
0.0
  0
SPLINE
  5
1e0
100
AcDbEntity
  8
0
 62
7
100
AcDbSpline
 70
8
 71
3
 72
8
 73
4
 74
0
 40
0
 40
0
 40
0
 40
0
 40
1
 40
1
 40
1
 40
1
 10
170.803784
 20
321.095546
 30
0.0
 10
170.803784
 20
326.159153
 30
0.0
 10
168.102382
 20
330.838119
 30
0.0
 10
163.717170
 20
333.369922
 30
0.0
  0
SPLINE
  5
1e1
100
AcDbEntity
  8
0
 62
7
100
AcDbSpline
 70
8
 71
3
 72
8
 73
4
 74
0
 40
0
 40
0
 40
0
 40
0
 40
1
 40
1
 40
1
 40
1
 10
163.717170
 20
333.369922
 30
0.0
 10
159.331957
 20
335.901726
 30
0.0
 10
153.929153
 20
335.901726
 30
0.0
 10
149.543941
 20
333.369922
 30
0.0
  0
SPLINE
  5
1e2
100
AcDbEntity
  8
0
 62
7
100
AcDbSpline
 70
8
 71
3
 72
8
 73
4
 74
0
 40
0
 40
0
 40
0
 40
0
 40
1
 40
1
 40
1
 40
1
 10
149.543941
 20
333.369922
 30
0.0
 10
145.158729
 20
330.838119
 30
0.0
 10
142.457327
 20
326.159153
 30
0.0
 10
142.457327
 20
321.095546
 30
0.0
  0
SPLINE
  5
1e3
100
AcDbEntity
  8
0
 62
7
100
AcDbSpline
 70
8
 71
3
 72
8
 73
4
 74
0
 40
0
 40
0
 40
0
 40
0
 40
1
 40
1
 40
1
 40
1
 10
142.457327
 20
321.095546
 30
0.0
 10
142.457327
 20
316.031939
 30
0.0
 10
145.158730
 20
311.352974
 30
0.0
 10
149.543942
 20
308.821170
 30
0.0
  0
SPLINE
  5
1e4
100
AcDbEntity
  8
0
 62
7
100
AcDbSpline
 70
8
 71
3
 72
8
 73
4
 74
0
 40
0
 40
0
 40
0
 40
0
 40
1
 40
1
 40
1
 40
1
 10
149.543942
 20
308.821170
 30
0.0
 10
153.929154
 20
306.289367
 30
0.0
 10
159.331958
 20
306.289367
 30
0.0
 10
163.717170
 20
308.821170
 30
0.0
  0
SPLINE
  5
1e5
100
AcDbEntity
  8
0
 62
7
100
AcDbSpline
 70
8
 71
3
 72
8
 73
4
 74
0
 40
0
 40
0
 40
0
 40
0
 40
1
 40
1
 40
1
 40
1
 10
163.717170
 20
308.821170
 30
0.0
 10
168.102382
 20
311.352974
 30
0.0
 10
170.803784
 20
316.031939
 30
0.0
 10
170.803784
 20
321.095546
 30
0.0
  0
LWPOLYLINE
  5
1e6
100
AcDbEntity
  8
0
 62
7
100
AcDbPolyline
 90
1
 70
1
 10
448.599059
 20
377.788421
 30
0.0
  0
SPLINE
  5
1e7
100
AcDbEntity
  8
0
 62
7
100
AcDbSpline
 70
8
 71
3
 72
8
 73
4
 74
0
 40
0
 40
0
 40
0
 40
0
 40
1
 40
1
 40
1
 40
1
 10
170.803784
 20
236.056196
 30
0.0
 10
170.803784
 20
241.119803
 30
0.0
 10
168.102382
 20
245.798769
 30
0.0
 10
163.717170
 20
248.330572
 30
0.0
  0
SPLINE
  5
1e8
100
AcDbEntity
  8
0
 62
7
100
AcDbSpline
 70
8
 71
3
 72
8
 73
4
 74
0
 40
0
 40
0
 40
0
 40
0
 40
1
 40
1
 40
1
 40
1
 10
163.717170
 20
248.330572
 30
0.0
 10
159.331957
 20
250.862376
 30
0.0
 10
153.929153
 20
250.862376
 30
0.0
 10
149.543941
 20
248.330572
 30
0.0
  0
SPLINE
  5
1e9
100
AcDbEntity
  8
0
 62
7
100
AcDbSpline
 70
8
 71
3
 72
8
 73
4
 74
0
 40
0
 40
0
 40
0
 40
0
 40
1
 40
1
 40
1
 40
1
 10
149.543941
 20
248.330572
 30
0.0
 10
145.158729
 20
245.798769
 30
0.0
 10
142.457327
 20
241.119803
 30
0.0
 10
142.457327
 20
236.056196
 30
0.0
  0
SPLINE
  5
1ea
100
AcDbEntity
  8
0
 62
7
100
AcDbSpline
 70
8
 71
3
 72
8
 73
4
 74
0
 40
0
 40
0
 40
0
 40
0
 40
1
 40
1
 40
1
 40
1
 10
142.457327
 20
236.056196
 30
0.0
 10
142.457327
 20
230.992589
 30
0.0
 10
145.158730
 20
226.313624
 30
0.0
 10
149.543942
 20
223.781820
 30
0.0
  0
SPLINE
  5
1eb
100
AcDbEntity
  8
0
 62
7
100
AcDbSpline
 70
8
 71
3
 72
8
 73
4
 74
0
 40
0
 40
0
 40
0
 40
0
 40
1
 40
1
 40
1
 40
1
 10
149.543942
 20
223.781820
 30
0.0
 10
153.929154
 20
221.250017
 30
0.0
 10
159.331958
 20
221.250017
 30
0.0
 10
163.717170
 20
223.781820
 30
0.0
  0
SPLINE
  5
1ec
100
AcDbEntity
  8
0
 62
7
100
AcDbSpline
 70
8
 71
3
 72
8
 73
4
 74
0
 40
0
 40
0
 40
0
 40
0
 40
1
 40
1
 40
1
 40
1
 10
163.717170
 20
223.781820
 30
0.0
 10
168.102382
 20
226.313624
 30
0.0
 10
170.803784
 20
230.992589
 30
0.0
 10
170.803784
 20
236.056196
 30
0.0
  0
LWPOLYLINE
  5
1ed
100
AcDbEntity
  8
0
 62
7
100
AcDbPolyline
 90
1
 70
1
 10
170.803784
 20
321.095546
 30
0.0
  0
SPLINE
  5
1ee
100
AcDbEntity
  8
0
 62
7
100
AcDbSpline
 70
8
 71
3
 72
8
 73
4
 74
0
 40
0
 40
0
 40
0
 40
0
 40
1
 40
1
 40
1
 40
1
 10
227.496696
 20
321.095546
 30
0.0
 10
227.496696
 20
326.159153
 30
0.0
 10
224.795294
 20
330.838119
 30
0.0
 10
220.410082
 20
333.369922
 30
0.0
  0
SPLINE
  5
1ef
100
AcDbEntity
  8
0
 62
7
100
AcDbSpline
 70
8
 71
3
 72
8
 73
4
 74
0
 40
0
 40
0
 40
0
 40
0
 40
1
 40
1
 40
1
 40
1
 10
220.410082
 20
333.369922
 30
0.0
 10
216.024870
 20
335.901726
 30
0.0
 10
210.622065
 20
335.901726
 30
0.0
 10
206.236853
 20
333.369922
 30
0.0
  0
SPLINE
  5
1f0
100
AcDbEntity
  8
0
 62
7
100
AcDbSpline
 70
8
 71
3
 72
8
 73
4
 74
0
 40
0
 40
0
 40
0
 40
0
 40
1
 40
1
 40
1
 40
1
 10
206.236853
 20
333.369922
 30
0.0
 10
201.851641
 20
330.838119
 30
0.0
 10
199.150239
 20
326.159153
 30
0.0
 10
199.150240
 20
321.095546
 30
0.0
  0
SPLINE
  5
1f1
100
AcDbEntity
  8
0
 62
7
100
AcDbSpline
 70
8
 71
3
 72
8
 73
4
 74
0
 40
0
 40
0
 40
0
 40
0
 40
1
 40
1
 40
1
 40
1
 10
199.150240
 20
321.095546
 30
0.0
 10
199.150240
 20
316.031939
 30
0.0
 10
201.851642
 20
311.352974
 30
0.0
 10
206.236854
 20
308.821170
 30
0.0
  0
SPLINE
  5
1f2
100
AcDbEntity
  8
0
 62
7
100
AcDbSpline
 70
8
 71
3
 72
8
 73
4
 74
0
 40
0
 40
0
 40
0
 40
0
 40
1
 40
1
 40
1
 40
1
 10
206.236854
 20
308.821170
 30
0.0
 10
210.622066
 20
306.289367
 30
0.0
 10
216.024870
 20
306.289367
 30
0.0
 10
220.410082
 20
308.821170
 30
0.0
  0
SPLINE
  5
1f3
100
AcDbEntity
  8
0
 62
7
100
AcDbSpline
 70
8
 71
3
 72
8
 73
4
 74
0
 40
0
 40
0
 40
0
 40
0
 40
1
 40
1
 40
1
 40
1
 10
220.410082
 20
308.821170
 30
0.0
 10
224.795295
 20
311.352974
 30
0.0
 10
227.496697
 20
316.031939
 30
0.0
 10
227.496697
 20
321.095546
 30
0.0
  0
LWPOLYLINE
  5
1f4
100
AcDbEntity
  8
0
 62
7
100
AcDbPolyline
 90
1
 70
1
 10
170.803784
 20
236.056196
 30
0.0
  0
SPLINE
  5
1f5
100
AcDbEntity
  8
0
 62
7
100
AcDbSpline
 70
8
 71
3
 72
8
 73
4
 74
0
 40
0
 40
0
 40
0
 40
0
 40
1
 40
1
 40
1
 40
1
 10
284.189609
 20
321.095546
 30
0.0
 10
284.189609
 20
326.159153
 30
0.0
 10
281.488206
 20
330.838119
 30
0.0
 10
277.102994
 20
333.369922
 30
0.0
  0
SPLINE
  5
1f6
100
AcDbEntity
  8
0
 62
7
100
AcDbSpline
 70
8
 71
3
 72
8
 73
4
 74
0
 40
0
 40
0
 40
0
 40
0
 40
1
 40
1
 40
1
 40
1
 10
277.102994
 20
333.369922
 30
0.0
 10
272.717782
 20
335.901726
 30
0.0
 10
267.314978
 20
335.901726
 30
0.0
 10
262.929766
 20
333.369922
 30
0.0
  0
SPLINE
  5
1f7
100
AcDbEntity
  8
0
 62
7
100
AcDbSpline
 70
8
 71
3
 72
8
 73
4
 74
0
 40
0
 40
0
 40
0
 40
0
 40
1
 40
1
 40
1
 40
1
 10
262.929766
 20
333.369922
 30
0.0
 10
258.544554
 20
330.838119
 30
0.0
 10
255.843151
 20
326.159153
 30
0.0
 10
255.843152
 20
321.095546
 30
0.0
  0
SPLINE
  5
1f8
100
AcDbEntity
  8
0
 62
7
100
AcDbSpline
 70
8
 71
3
 72
8
 73
4
 74
0
 40
0
 40
0
 40
0
 40
0
 40
1
 40
1
 40
1
 40
1
 10
255.843152
 20
321.095546
 30
0.0
 10
255.843152
 20
316.031939
 30
0.0
 10
258.544554
 20
311.352974
 30
0.0
 10
262.929766
 20
308.821170
 30
0.0
  0
SPLINE
  5
1f9
100
AcDbEntity
  8
0
 62
7
100
AcDbSpline
 70
8
 71
3
 72
8
 73
4
 74
0
 40
0
 40
0
 40
0
 40
0
 40
1
 40
1
 40
1
 40
1
 10
262.929766
 20
308.821170
 30
0.0
 10
267.314979
 20
306.289367
 30
0.0
 10
272.717783
 20
306.289367
 30
0.0
 10
277.102995
 20
308.821170
 30
0.0
  0
SPLINE
  5
1fa
100
AcDbEntity
  8
0
 62
7
100
AcDbSpline
 70
8
 71
3
 72
8
 73
4
 74
0
 40
0
 40
0
 40
0
 40
0
 40
1
 40
1
 40
1
 40
1
 10
277.102995
 20
308.821170
 30
0.0
 10
281.488207
 20
311.352974
 30
0.0
 10
284.189609
 20
316.031939
 30
0.0
 10
284.189609
 20
321.095546
 30
0.0
  0
LWPOLYLINE
  5
1fb
100
AcDbEntity
  8
0
 62
7
100
AcDbPolyline
 90
1
 70
1
 10
227.496697
 20
321.095546
 30
0.0
  0
SPLINE
  5
1fc
100
AcDbEntity
  8
0
 62
7
100
AcDbSpline
 70
8
 71
3
 72
8
 73
4
 74
0
 40
0
 40
0
 40
0
 40
0
 40
1
 40
1
 40
1
 40
1
 10
340.882522
 20
321.095546
 30
0.0
 10
340.885377
 20
326.161054
 30
0.0
 10
338.184600
 20
330.842999
 30
0.0
 10
333.798216
 20
333.376577
 30
0.0
  0
SPLINE
  5
1fd
100
AcDbEntity
  8
0
 62
7
100
AcDbSpline
 70
8
 71
3
 72
8
 73
4
 74
0
 40
0
 40
0
 40
0
 40
0
 40
1
 40
1
 40
1
 40
1
 10
333.798216
 20
333.376577
 30
0.0
 10
329.411832
 20
335.910156
 30
0.0
 10
324.006760
 20
335.910156
 30
0.0
 10
319.620377
 20
333.376577
 30
0.0
  0
SPLINE
  5
1fe
100
AcDbEntity
  8
0
 62
7
100
AcDbSpline
 70
8
 71
3
 72
8
 73
4
 74
0
 40
0
 40
0
 40
0
 40
0
 40
1
 40
1
 40
1
 40
1
 10
319.620377
 20
333.376577
 30
0.0
 10
315.233993
 20
330.842999
 30
0.0
 10
312.533216
 20
326.161054
 30
0.0
 10
312.536070
 20
321.095546
 30
0.0
  0
SPLINE
  5
1ff
100
AcDbEntity
  8
0
 62
7
100
AcDbSpline
 70
8
 71
3
 72
8
 73
4
 74
0
 40
0
 40
0
 40
0
 40
0
 40
1
 40
1
 40
1
 40
1
 10
312.536070
 20
321.095546
 30
0.0
 10
312.533216
 20
316.030038
 30
0.0
 10
315.233993
 20
311.348094
 30
0.0
 10
319.620377
 20
308.814515
 30
0.0
  0
SPLINE
  5
200
100
AcDbEntity
  8
0
 62
7
100
AcDbSpline
 70
8
 71
3
 72
8
 73
4
 74
0
 40
0
 40
0
 40
0
 40
0
 40
1
 40
1
 40
1
 40
1
 10
319.620377
 20
308.814515
 30
0.0
 10
324.006760
 20
306.280937
 30
0.0
 10
329.411832
 20
306.280937
 30
0.0
 10
333.798216
 20
308.814515
 30
0.0
  0
SPLINE
  5
201
100
AcDbEntity
  8
0
 62
7
100
AcDbSpline
 70
8
 71
3
 72
8
 73
4
 74
0
 40
0
 40
0
 40
0
 40
0
 40
1
 40
1
 40
1
 40
1
 10
333.798216
 20
308.814515
 30
0.0
 10
338.184600
 20
311.348094
 30
0.0
 10
340.885377
 20
316.030038
 30
0.0
 10
340.882522
 20
321.095546
 30
0.0
  0
LWPOLYLINE
  5
202
100
AcDbEntity
  8
0
 62
7
100
AcDbPolyline
 90
1
 70
1
 10
284.189609
 20
321.095546
 30
0.0
  0
SPLINE
  5
203
100
AcDbEntity
  8
0
 62
7
100
AcDbSpline
 70
8
 71
3
 72
8
 73
4
 74
0
 40
0
 40
0
 40
0
 40
0
 40
1
 40
1
 40
1
 40
1
 10
397.575435
 20
321.095546
 30
0.0
 10
397.578289
 20
326.161054
 30
0.0
 10
394.877512
 20
330.842999
 30
0.0
 10
390.491128
 20
333.376577
 30
0.0
  0
SPLINE
  5
204
100
AcDbEntity
  8
0
 62
7
100
AcDbSpline
 70
8
 71
3
 72
8
 73
4
 74
0
 40
0
 40
0
 40
0
 40
0
 40
1
 40
1
 40
1
 40
1
 10
390.491128
 20
333.376577
 30
0.0
 10
386.104745
 20
335.910156
 30
0.0
 10
380.699673
 20
335.910156
 30
0.0
 10
376.313289
 20
333.376577
 30
0.0
  0
SPLINE
  5
205
100
AcDbEntity
  8
0
 62
7
100
AcDbSpline
 70
8
 71
3
 72
8
 73
4
 74
0
 40
0
 40
0
 40
0
 40
0
 40
1
 40
1
 40
1
 40
1
 10
376.313289
 20
333.376577
 30
0.0
 10
371.926905
 20
330.842999
 30
0.0
 10
369.226128
 20
326.161054
 30
0.0
 10
369.228982
 20
321.095546
 30
0.0
  0
SPLINE
  5
206
100
AcDbEntity
  8
0
 62
7
100
AcDbSpline
 70
8
 71
3
 72
8
 73
4
 74
0
 40
0
 40
0
 40
0
 40
0
 40
1
 40
1
 40
1
 40
1
 10
369.228982
 20
321.095546
 30
0.0
 10
369.226128
 20
316.030038
 30
0.0
 10
371.926905
 20
311.348094
 30
0.0
 10
376.313289
 20
308.814515
 30
0.0
  0
SPLINE
  5
207
100
AcDbEntity
  8
0
 62
7
100
AcDbSpline
 70
8
 71
3
 72
8
 73
4
 74
0
 40
0
 40
0
 40
0
 40
0
 40
1
 40
1
 40
1
 40
1
 10
376.313289
 20
308.814515
 30
0.0
 10
380.699673
 20
306.280937
 30
0.0
 10
386.104745
 20
306.280937
 30
0.0
 10
390.491128
 20
308.814515
 30
0.0
  0
SPLINE
  5
208
100
AcDbEntity
  8
0
 62
7
100
AcDbSpline
 70
8
 71
3
 72
8
 73
4
 74
0
 40
0
 40
0
 40
0
 40
0
 40
1
 40
1
 40
1
 40
1
 10
390.491128
 20
308.814515
 30
0.0
 10
394.877512
 20
311.348094
 30
0.0
 10
397.578289
 20
316.030038
 30
0.0
 10
397.575435
 20
321.095546
 30
0.0
  0
LWPOLYLINE
  5
209
100
AcDbEntity
  8
0
 62
7
100
AcDbPolyline
 90
1
 70
1
 10
340.882522
 20
321.095546
 30
0.0
  0
SPLINE
  5
20a
100
AcDbEntity
  8
0
 62
7
100
AcDbSpline
 70
8
 71
3
 72
8
 73
4
 74
0
 40
0
 40
0
 40
0
 40
0
 40
1
 40
1
 40
1
 40
1
 10
454.268347
 20
321.095546
 30
0.0
 10
454.271202
 20
326.161054
 30
0.0
 10
451.570425
 20
330.842999
 30
0.0
 10
447.184041
 20
333.376577
 30
0.0
  0
SPLINE
  5
20b
100
AcDbEntity
  8
0
 62
7
100
AcDbSpline
 70
8
 71
3
 72
8
 73
4
 74
0
 40
0
 40
0
 40
0
 40
0
 40
1
 40
1
 40
1
 40
1
 10
447.184041
 20
333.376577
 30
0.0
 10
442.797657
 20
335.910156
 30
0.0
 10
437.392585
 20
335.910156
 30
0.0
 10
433.006202
 20
333.376577
 30
0.0
  0
SPLINE
  5
20c
100
AcDbEntity
  8
0
 62
7
100
AcDbSpline
 70
8
 71
3
 72
8
 73
4
 74
0
 40
0
 40
0
 40
0
 40
0
 40
1
 40
1
 40
1
 40
1
 10
433.006202
 20
333.376577
 30
0.0
 10
428.619818
 20
330.842999
 30
0.0
 10
425.919041
 20
326.161054
 30
0.0
 10
425.921895
 20
321.095546
 30
0.0
  0
SPLINE
  5
20d
100
AcDbEntity
  8
0
 62
7
100
AcDbSpline
 70
8
 71
3
 72
8
 73
4
 74
0
 40
0
 40
0
 40
0
 40
0
 40
1
 40
1
 40
1
 40
1
 10
425.921895
 20
321.095546
 30
0.0
 10
425.919041
 20
316.030038
 30
0.0
 10
428.619818
 20
311.348094
 30
0.0
 10
433.006202
 20
308.814515
 30
0.0
  0
SPLINE
  5
20e
100
AcDbEntity
  8
0
 62
7
100
AcDbSpline
 70
8
 71
3
 72
8
 73
4
 74
0
 40
0
 40
0
 40
0
 40
0
 40
1
 40
1
 40
1
 40
1
 10
433.006202
 20
308.814515
 30
0.0
 10
437.392585
 20
306.280937
 30
0.0
 10
442.797657
 20
306.280937
 30
0.0
 10
447.184041
 20
308.814515
 30
0.0
  0
SPLINE
  5
20f
100
AcDbEntity
  8
0
 62
7
100
AcDbSpline
 70
8
 71
3
 72
8
 73
4
 74
0
 40
0
 40
0
 40
0
 40
0
 40
1
 40
1
 40
1
 40
1
 10
447.184041
 20
308.814515
 30
0.0
 10
451.570425
 20
311.348094
 30
0.0
 10
454.271202
 20
316.030038
 30
0.0
 10
454.268347
 20
321.095546
 30
0.0
  0
LWPOLYLINE
  5
210
100
AcDbEntity
  8
0
 62
7
100
AcDbPolyline
 90
1
 70
1
 10
397.575435
 20
321.095546
 30
0.0
  0
SPLINE
  5
211
100
AcDbEntity
  8
0
 62
7
100
AcDbSpline
 70
8
 71
3
 72
8
 73
4
 74
0
 40
0
 40
0
 40
0
 40
0
 40
1
 40
1
 40
1
 40
1
 10
227.496696
 20
236.056196
 30
0.0
 10
227.496696
 20
241.119803
 30
0.0
 10
224.795294
 20
245.798769
 30
0.0
 10
220.410082
 20
248.330572
 30
0.0
  0
SPLINE
  5
212
100
AcDbEntity
  8
0
 62
7
100
AcDbSpline
 70
8
 71
3
 72
8
 73
4
 74
0
 40
0
 40
0
 40
0
 40
0
 40
1
 40
1
 40
1
 40
1
 10
220.410082
 20
248.330572
 30
0.0
 10
216.024870
 20
250.862376
 30
0.0
 10
210.622065
 20
250.862376
 30
0.0
 10
206.236853
 20
248.330572
 30
0.0
  0
SPLINE
  5
213
100
AcDbEntity
  8
0
 62
7
100
AcDbSpline
 70
8
 71
3
 72
8
 73
4
 74
0
 40
0
 40
0
 40
0
 40
0
 40
1
 40
1
 40
1
 40
1
 10
206.236853
 20
248.330572
 30
0.0
 10
201.851641
 20
245.798769
 30
0.0
 10
199.150239
 20
241.119803
 30
0.0
 10
199.150240
 20
236.056196
 30
0.0
  0
SPLINE
  5
214
100
AcDbEntity
  8
0
 62
7
100
AcDbSpline
 70
8
 71
3
 72
8
 73
4
 74
0
 40
0
 40
0
 40
0
 40
0
 40
1
 40
1
 40
1
 40
1
 10
199.150240
 20
236.056196
 30
0.0
 10
199.150240
 20
230.992589
 30
0.0
 10
201.851642
 20
226.313624
 30
0.0
 10
206.236854
 20
223.781820
 30
0.0
  0
SPLINE
  5
215
100
AcDbEntity
  8
0
 62
7
100
AcDbSpline
 70
8
 71
3
 72
8
 73
4
 74
0
 40
0
 40
0
 40
0
 40
0
 40
1
 40
1
 40
1
 40
1
 10
206.236854
 20
223.781820
 30
0.0
 10
210.622066
 20
221.250017
 30
0.0
 10
216.024870
 20
221.250017
 30
0.0
 10
220.410082
 20
223.781820
 30
0.0
  0
SPLINE
  5
216
100
AcDbEntity
  8
0
 62
7
100
AcDbSpline
 70
8
 71
3
 72
8
 73
4
 74
0
 40
0
 40
0
 40
0
 40
0
 40
1
 40
1
 40
1
 40
1
 10
220.410082
 20
223.781820
 30
0.0
 10
224.795295
 20
226.313624
 30
0.0
 10
227.496697
 20
230.992589
 30
0.0
 10
227.496697
 20
236.056196
 30
0.0
  0
LWPOLYLINE
  5
217
100
AcDbEntity
  8
0
 62
7
100
AcDbPolyline
 90
1
 70
1
 10
454.268347
 20
321.095546
 30
0.0
  0
SPLINE
  5
218
100
AcDbEntity
  8
0
 62
7
100
AcDbSpline
 70
8
 71
3
 72
8
 73
4
 74
0
 40
0
 40
0
 40
0
 40
0
 40
1
 40
1
 40
1
 40
1
 10
284.189609
 20
236.056196
 30
0.0
 10
284.189609
 20
241.119803
 30
0.0
 10
281.488206
 20
245.798769
 30
0.0
 10
277.102994
 20
248.330572
 30
0.0
  0
SPLINE
  5
219
100
AcDbEntity
  8
0
 62
7
100
AcDbSpline
 70
8
 71
3
 72
8
 73
4
 74
0
 40
0
 40
0
 40
0
 40
0
 40
1
 40
1
 40
1
 40
1
 10
277.102994
 20
248.330572
 30
0.0
 10
272.717782
 20
250.862376
 30
0.0
 10
267.314978
 20
250.862376
 30
0.0
 10
262.929766
 20
248.330572
 30
0.0
  0
SPLINE
  5
21a
100
AcDbEntity
  8
0
 62
7
100
AcDbSpline
 70
8
 71
3
 72
8
 73
4
 74
0
 40
0
 40
0
 40
0
 40
0
 40
1
 40
1
 40
1
 40
1
 10
262.929766
 20
248.330572
 30
0.0
 10
258.544554
 20
245.798769
 30
0.0
 10
255.843151
 20
241.119803
 30
0.0
 10
255.843152
 20
236.056196
 30
0.0
  0
SPLINE
  5
21b
100
AcDbEntity
  8
0
 62
7
100
AcDbSpline
 70
8
 71
3
 72
8
 73
4
 74
0
 40
0
 40
0
 40
0
 40
0
 40
1
 40
1
 40
1
 40
1
 10
255.843152
 20
236.056196
 30
0.0
 10
255.843152
 20
230.992589
 30
0.0
 10
258.544554
 20
226.313624
 30
0.0
 10
262.929766
 20
223.781820
 30
0.0
  0
SPLINE
  5
21c
100
AcDbEntity
  8
0
 62
7
100
AcDbSpline
 70
8
 71
3
 72
8
 73
4
 74
0
 40
0
 40
0
 40
0
 40
0
 40
1
 40
1
 40
1
 40
1
 10
262.929766
 20
223.781820
 30
0.0
 10
267.314979
 20
221.250017
 30
0.0
 10
272.717783
 20
221.250017
 30
0.0
 10
277.102995
 20
223.781820
 30
0.0
  0
SPLINE
  5
21d
100
AcDbEntity
  8
0
 62
7
100
AcDbSpline
 70
8
 71
3
 72
8
 73
4
 74
0
 40
0
 40
0
 40
0
 40
0
 40
1
 40
1
 40
1
 40
1
 10
277.102995
 20
223.781820
 30
0.0
 10
281.488207
 20
226.313624
 30
0.0
 10
284.189609
 20
230.992589
 30
0.0
 10
284.189609
 20
236.056196
 30
0.0
  0
LWPOLYLINE
  5
21e
100
AcDbEntity
  8
0
 62
7
100
AcDbPolyline
 90
1
 70
1
 10
227.496697
 20
236.056196
 30
0.0
  0
SPLINE
  5
21f
100
AcDbEntity
  8
0
 62
7
100
AcDbSpline
 70
8
 71
3
 72
8
 73
4
 74
0
 40
0
 40
0
 40
0
 40
0
 40
1
 40
1
 40
1
 40
1
 10
340.882522
 20
236.056196
 30
0.0
 10
340.885377
 20
241.121704
 30
0.0
 10
338.184600
 20
245.803649
 30
0.0
 10
333.798216
 20
248.337227
 30
0.0
  0
SPLINE
  5
220
100
AcDbEntity
  8
0
 62
7
100
AcDbSpline
 70
8
 71
3
 72
8
 73
4
 74
0
 40
0
 40
0
 40
0
 40
0
 40
1
 40
1
 40
1
 40
1
 10
333.798216
 20
248.337227
 30
0.0
 10
329.411832
 20
250.870806
 30
0.0
 10
324.006760
 20
250.870806
 30
0.0
 10
319.620377
 20
248.337227
 30
0.0
  0
SPLINE
  5
221
100
AcDbEntity
  8
0
 62
7
100
AcDbSpline
 70
8
 71
3
 72
8
 73
4
 74
0
 40
0
 40
0
 40
0
 40
0
 40
1
 40
1
 40
1
 40
1
 10
319.620377
 20
248.337227
 30
0.0
 10
315.233993
 20
245.803649
 30
0.0
 10
312.533216
 20
241.121704
 30
0.0
 10
312.536070
 20
236.056196
 30
0.0
  0
SPLINE
  5
222
100
AcDbEntity
  8
0
 62
7
100
AcDbSpline
 70
8
 71
3
 72
8
 73
4
 74
0
 40
0
 40
0
 40
0
 40
0
 40
1
 40
1
 40
1
 40
1
 10
312.536070
 20
236.056196
 30
0.0
 10
312.533216
 20
230.990688
 30
0.0
 10
315.233993
 20
226.308744
 30
0.0
 10
319.620377
 20
223.775165
 30
0.0
  0
SPLINE
  5
223
100
AcDbEntity
  8
0
 62
7
100
AcDbSpline
 70
8
 71
3
 72
8
 73
4
 74
0
 40
0
 40
0
 40
0
 40
0
 40
1
 40
1
 40
1
 40
1
 10
319.620377
 20
223.775165
 30
0.0
 10
324.006760
 20
221.241587
 30
0.0
 10
329.411832
 20
221.241587
 30
0.0
 10
333.798216
 20
223.775165
 30
0.0
  0
SPLINE
  5
224
100
AcDbEntity
  8
0
 62
7
100
AcDbSpline
 70
8
 71
3
 72
8
 73
4
 74
0
 40
0
 40
0
 40
0
 40
0
 40
1
 40
1
 40
1
 40
1
 10
333.798216
 20
223.775165
 30
0.0
 10
338.184600
 20
226.308744
 30
0.0
 10
340.885377
 20
230.990688
 30
0.0
 10
340.882522
 20
236.056196
 30
0.0
  0
LWPOLYLINE
  5
225
100
AcDbEntity
  8
0
 62
7
100
AcDbPolyline
 90
1
 70
1
 10
284.189609
 20
236.056196
 30
0.0
  0
SPLINE
  5
226
100
AcDbEntity
  8
0
 62
7
100
AcDbSpline
 70
8
 71
3
 72
8
 73
4
 74
0
 40
0
 40
0
 40
0
 40
0
 40
1
 40
1
 40
1
 40
1
 10
397.575435
 20
236.056196
 30
0.0
 10
397.578289
 20
241.121704
 30
0.0
 10
394.877512
 20
245.803649
 30
0.0
 10
390.491128
 20
248.337227
 30
0.0
  0
SPLINE
  5
227
100
AcDbEntity
  8
0
 62
7
100
AcDbSpline
 70
8
 71
3
 72
8
 73
4
 74
0
 40
0
 40
0
 40
0
 40
0
 40
1
 40
1
 40
1
 40
1
 10
390.491128
 20
248.337227
 30
0.0
 10
386.104745
 20
250.870806
 30
0.0
 10
380.699673
 20
250.870806
 30
0.0
 10
376.313289
 20
248.337227
 30
0.0
  0
SPLINE
  5
228
100
AcDbEntity
  8
0
 62
7
100
AcDbSpline
 70
8
 71
3
 72
8
 73
4
 74
0
 40
0
 40
0
 40
0
 40
0
 40
1
 40
1
 40
1
 40
1
 10
376.313289
 20
248.337227
 30
0.0
 10
371.926905
 20
245.803649
 30
0.0
 10
369.226128
 20
241.121704
 30
0.0
 10
369.228982
 20
236.056196
 30
0.0
  0
SPLINE
  5
229
100
AcDbEntity
  8
0
 62
7
100
AcDbSpline
 70
8
 71
3
 72
8
 73
4
 74
0
 40
0
 40
0
 40
0
 40
0
 40
1
 40
1
 40
1
 40
1
 10
369.228982
 20
236.056196
 30
0.0
 10
369.226128
 20
230.990688
 30
0.0
 10
371.926905
 20
226.308744
 30
0.0
 10
376.313289
 20
223.775165
 30
0.0
  0
SPLINE
  5
22a
100
AcDbEntity
  8
0
 62
7
100
AcDbSpline
 70
8
 71
3
 72
8
 73
4
 74
0
 40
0
 40
0
 40
0
 40
0
 40
1
 40
1
 40
1
 40
1
 10
376.313289
 20
223.775165
 30
0.0
 10
380.699673
 20
221.241587
 30
0.0
 10
386.104745
 20
221.241587
 30
0.0
 10
390.491128
 20
223.775165
 30
0.0
  0
SPLINE
  5
22b
100
AcDbEntity
  8
0
 62
7
100
AcDbSpline
 70
8
 71
3
 72
8
 73
4
 74
0
 40
0
 40
0
 40
0
 40
0
 40
1
 40
1
 40
1
 40
1
 10
390.491128
 20
223.775165
 30
0.0
 10
394.877512
 20
226.308744
 30
0.0
 10
397.578289
 20
230.990688
 30
0.0
 10
397.575435
 20
236.056196
 30
0.0
  0
LWPOLYLINE
  5
22c
100
AcDbEntity
  8
0
 62
7
100
AcDbPolyline
 90
1
 70
1
 10
340.882522
 20
236.056196
 30
0.0
  0
SPLINE
  5
22d
100
AcDbEntity
  8
0
 62
7
100
AcDbSpline
 70
8
 71
3
 72
8
 73
4
 74
0
 40
0
 40
0
 40
0
 40
0
 40
1
 40
1
 40
1
 40
1
 10
454.268347
 20
236.056196
 30
0.0
 10
454.271202
 20
241.121704
 30
0.0
 10
451.570425
 20
245.803649
 30
0.0
 10
447.184041
 20
248.337227
 30
0.0
  0
SPLINE
  5
22e
100
AcDbEntity
  8
0
 62
7
100
AcDbSpline
 70
8
 71
3
 72
8
 73
4
 74
0
 40
0
 40
0
 40
0
 40
0
 40
1
 40
1
 40
1
 40
1
 10
447.184041
 20
248.337227
 30
0.0
 10
442.797657
 20
250.870806
 30
0.0
 10
437.392585
 20
250.870806
 30
0.0
 10
433.006202
 20
248.337227
 30
0.0
  0
SPLINE
  5
22f
100
AcDbEntity
  8
0
 62
7
100
AcDbSpline
 70
8
 71
3
 72
8
 73
4
 74
0
 40
0
 40
0
 40
0
 40
0
 40
1
 40
1
 40
1
 40
1
 10
433.006202
 20
248.337227
 30
0.0
 10
428.619818
 20
245.803649
 30
0.0
 10
425.919041
 20
241.121704
 30
0.0
 10
425.921895
 20
236.056196
 30
0.0
  0
SPLINE
  5
230
100
AcDbEntity
  8
0
 62
7
100
AcDbSpline
 70
8
 71
3
 72
8
 73
4
 74
0
 40
0
 40
0
 40
0
 40
0
 40
1
 40
1
 40
1
 40
1
 10
425.921895
 20
236.056196
 30
0.0
 10
425.919041
 20
230.990688
 30
0.0
 10
428.619818
 20
226.308744
 30
0.0
 10
433.006202
 20
223.775165
 30
0.0
  0
SPLINE
  5
231
100
AcDbEntity
  8
0
 62
7
100
AcDbSpline
 70
8
 71
3
 72
8
 73
4
 74
0
 40
0
 40
0
 40
0
 40
0
 40
1
 40
1
 40
1
 40
1
 10
433.006202
 20
223.775165
 30
0.0
 10
437.392585
 20
221.241587
 30
0.0
 10
442.797657
 20
221.241587
 30
0.0
 10
447.184041
 20
223.775165
 30
0.0
  0
SPLINE
  5
232
100
AcDbEntity
  8
0
 62
7
100
AcDbSpline
 70
8
 71
3
 72
8
 73
4
 74
0
 40
0
 40
0
 40
0
 40
0
 40
1
 40
1
 40
1
 40
1
 10
447.184041
 20
223.775165
 30
0.0
 10
451.570425
 20
226.308744
 30
0.0
 10
454.271202
 20
230.990688
 30
0.0
 10
454.268347
 20
236.056196
 30
0.0
  0
LWPOLYLINE
  5
233
100
AcDbEntity
  8
0
 62
7
100
AcDbPolyline
 90
1
 70
1
 10
397.575435
 20
236.056196
 30
0.0
  0
SPLINE
  5
234
100
AcDbEntity
  8
0
 62
7
100
AcDbSpline
 70
8
 71
3
 72
8
 73
4
 74
0
 40
0
 40
0
 40
0
 40
0
 40
1
 40
1
 40
1
 40
1
 10
221.827402
 20
278.575871
 30
0.0
 10
221.829614
 20
281.615508
 30
0.0
 10
220.209257
 20
284.425195
 30
0.0
 10
217.577222
 20
285.945652
 30
0.0
  0
SPLINE
  5
235
100
AcDbEntity
  8
0
 62
7
100
AcDbSpline
 70
8
 71
3
 72
8
 73
4
 74
0
 40
0
 40
0
 40
0
 40
0
 40
1
 40
1
 40
1
 40
1
 10
217.577222
 20
285.945652
 30
0.0
 10
214.945187
 20
287.466109
 30
0.0
 10
211.701748
 20
287.466109
 30
0.0
 10
209.069713
 20
285.945652
 30
0.0
  0
SPLINE
  5
236
100
AcDbEntity
  8
0
 62
7
100
AcDbSpline
 70
8
 71
3
 72
8
 73
4
 74
0
 40
0
 40
0
 40
0
 40
0
 40
1
 40
1
 40
1
 40
1
 10
209.069713
 20
285.945652
 30
0.0
 10
206.437678
 20
284.425195
 30
0.0
 10
204.817321
 20
281.615508
 30
0.0
 10
204.819533
 20
278.575871
 30
0.0
  0
SPLINE
  5
237
100
AcDbEntity
  8
0
 62
7
100
AcDbSpline
 70
8
 71
3
 72
8
 73
4
 74
0
 40
0
 40
0
 40
0
 40
0
 40
1
 40
1
 40
1
 40
1
 10
204.819533
 20
278.575871
 30
0.0
 10
204.817321
 20
275.536234
 30
0.0
 10
206.437678
 20
272.726548
 30
0.0
 10
209.069713
 20
271.206091
 30
0.0
  0
SPLINE
  5
238
100
AcDbEntity
  8
0
 62
7
100
AcDbSpline
 70
8
 71
3
 72
8
 73
4
 74
0
 40
0
 40
0
 40
0
 40
0
 40
1
 40
1
 40
1
 40
1
 10
209.069713
 20
271.206091
 30
0.0
 10
211.701748
 20
269.685634
 30
0.0
 10
214.945187
 20
269.685634
 30
0.0
 10
217.577222
 20
271.206091
 30
0.0
  0
SPLINE
  5
239
100
AcDbEntity
  8
0
 62
7
100
AcDbSpline
 70
8
 71
3
 72
8
 73
4
 74
0
 40
0
 40
0
 40
0
 40
0
 40
1
 40
1
 40
1
 40
1
 10
217.577222
 20
271.206091
 30
0.0
 10
220.209257
 20
272.726548
 30
0.0
 10
221.829614
 20
275.536234
 30
0.0
 10
221.827402
 20
278.575871
 30
0.0
  0
LWPOLYLINE
  5
23a
100
AcDbEntity
  8
0
 62
7
100
AcDbPolyline
 90
1
 70
1
 10
454.268347
 20
236.056196
 30
0.0
  0
SPLINE
  5
23b
100
AcDbEntity
  8
0
 62
7
100
AcDbSpline
 70
8
 71
3
 72
8
 73
4
 74
0
 40
0
 40
0
 40
0
 40
0
 40
1
 40
1
 40
1
 40
1
 10
278.520315
 20
278.575871
 30
0.0
 10
278.522526
 20
281.615508
 30
0.0
 10
276.902169
 20
284.425195
 30
0.0
 10
274.270134
 20
285.945652
 30
0.0
  0
SPLINE
  5
23c
100
AcDbEntity
  8
0
 62
7
100
AcDbSpline
 70
8
 71
3
 72
8
 73
4
 74
0
 40
0
 40
0
 40
0
 40
0
 40
1
 40
1
 40
1
 40
1
 10
274.270134
 20
285.945652
 30
0.0
 10
271.638100
 20
287.466109
 30
0.0
 10
268.394660
 20
287.466109
 30
0.0
 10
265.762626
 20
285.945652
 30
0.0
  0
SPLINE
  5
23d
100
AcDbEntity
  8
0
 62
7
100
AcDbSpline
 70
8
 71
3
 72
8
 73
4
 74
0
 40
0
 40
0
 40
0
 40
0
 40
1
 40
1
 40
1
 40
1
 10
265.762626
 20
285.945652
 30
0.0
 10
263.130591
 20
284.425195
 30
0.0
 10
261.510234
 20
281.615508
 30
0.0
 10
261.512445
 20
278.575871
 30
0.0
  0
SPLINE
  5
23e
100
AcDbEntity
  8
0
 62
7
100
AcDbSpline
 70
8
 71
3
 72
8
 73
4
 74
0
 40
0
 40
0
 40
0
 40
0
 40
1
 40
1
 40
1
 40
1
 10
261.512445
 20
278.575871
 30
0.0
 10
261.510234
 20
275.536234
 30
0.0
 10
263.130591
 20
272.726548
 30
0.0
 10
265.762626
 20
271.206091
 30
0.0
  0
SPLINE
  5
23f
100
AcDbEntity
  8
0
 62
7
100
AcDbSpline
 70
8
 71
3
 72
8
 73
4
 74
0
 40
0
 40
0
 40
0
 40
0
 40
1
 40
1
 40
1
 40
1
 10
265.762626
 20
271.206091
 30
0.0
 10
268.394660
 20
269.685634
 30
0.0
 10
271.638100
 20
269.685634
 30
0.0
 10
274.270134
 20
271.206091
 30
0.0
  0
SPLINE
  5
240
100
AcDbEntity
  8
0
 62
7
100
AcDbSpline
 70
8
 71
3
 72
8
 73
4
 74
0
 40
0
 40
0
 40
0
 40
0
 40
1
 40
1
 40
1
 40
1
 10
274.270134
 20
271.206091
 30
0.0
 10
276.902169
 20
272.726548
 30
0.0
 10
278.522526
 20
275.536234
 30
0.0
 10
278.520315
 20
278.575871
 30
0.0
  0
LWPOLYLINE
  5
241
100
AcDbEntity
  8
0
 62
7
100
AcDbPolyline
 90
1
 70
1
 10
221.827402
 20
278.575871
 30
0.0
  0
SPLINE
  5
242
100
AcDbEntity
  8
0
 62
7
100
AcDbSpline
 70
8
 71
3
 72
8
 73
4
 74
0
 40
0
 40
0
 40
0
 40
0
 40
1
 40
1
 40
1
 40
1
 10
335.213234
 20
278.575871
 30
0.0
 10
335.213234
 20
281.614035
 30
0.0
 10
333.592392
 20
284.421415
 30
0.0
 10
330.961265
 20
285.940497
 30
0.0
  0
SPLINE
  5
243
100
AcDbEntity
  8
0
 62
7
100
AcDbSpline
 70
8
 71
3
 72
8
 73
4
 74
0
 40
0
 40
0
 40
0
 40
0
 40
1
 40
1
 40
1
 40
1
 10
330.961265
 20
285.940497
 30
0.0
 10
328.330138
 20
287.459579
 30
0.0
 10
325.088455
 20
287.459579
 30
0.0
 10
322.457328
 20
285.940497
 30
0.0
  0
SPLINE
  5
244
100
AcDbEntity
  8
0
 62
7
100
AcDbSpline
 70
8
 71
3
 72
8
 73
4
 74
0
 40
0
 40
0
 40
0
 40
0
 40
1
 40
1
 40
1
 40
1
 10
322.457328
 20
285.940497
 30
0.0
 10
319.826200
 20
284.421415
 30
0.0
 10
318.205359
 20
281.614035
 30
0.0
 10
318.205360
 20
278.575871
 30
0.0
  0
SPLINE
  5
245
100
AcDbEntity
  8
0
 62
7
100
AcDbSpline
 70
8
 71
3
 72
8
 73
4
 74
0
 40
0
 40
0
 40
0
 40
0
 40
1
 40
1
 40
1
 40
1
 10
318.205360
 20
278.575871
 30
0.0
 10
318.205360
 20
275.537707
 30
0.0
 10
319.826201
 20
272.730328
 30
0.0
 10
322.457328
 20
271.211246
 30
0.0
  0
SPLINE
  5
246
100
AcDbEntity
  8
0
 62
7
100
AcDbSpline
 70
8
 71
3
 72
8
 73
4
 74
0
 40
0
 40
0
 40
0
 40
0
 40
1
 40
1
 40
1
 40
1
 10
322.457328
 20
271.211246
 30
0.0
 10
325.088456
 20
269.692164
 30
0.0
 10
328.330138
 20
269.692164
 30
0.0
 10
330.961266
 20
271.211246
 30
0.0
  0
SPLINE
  5
247
100
AcDbEntity
  8
0
 62
7
100
AcDbSpline
 70
8
 71
3
 72
8
 73
4
 74
0
 40
0
 40
0
 40
0
 40
0
 40
1
 40
1
 40
1
 40
1
 10
330.961266
 20
271.211246
 30
0.0
 10
333.592393
 20
272.730328
 30
0.0
 10
335.213234
 20
275.537707
 30
0.0
 10
335.213234
 20
278.575871
 30
0.0
  0
LWPOLYLINE
  5
248
100
AcDbEntity
  8
0
 62
7
100
AcDbPolyline
 90
1
 70
1
 10
278.520315
 20
278.575871
 30
0.0
  0
SPLINE
  5
249
100
AcDbEntity
  8
0
 62
7
100
AcDbSpline
 70
8
 71
3
 72
8
 73
4
 74
0
 40
0
 40
0
 40
0
 40
0
 40
1
 40
1
 40
1
 40
1
 10
391.906146
 20
278.575871
 30
0.0
 10
391.906146
 20
281.614035
 30
0.0
 10
390.285305
 20
284.421415
 30
0.0
 10
387.654177
 20
285.940497
 30
0.0
  0
SPLINE
  5
24a
100
AcDbEntity
  8
0
 62
7
100
AcDbSpline
 70
8
 71
3
 72
8
 73
4
 74
0
 40
0
 40
0
 40
0
 40
0
 40
1
 40
1
 40
1
 40
1
 10
387.654177
 20
285.940497
 30
0.0
 10
385.023050
 20
287.459579
 30
0.0
 10
381.781367
 20
287.459579
 30
0.0
 10
379.150240
 20
285.940497
 30
0.0
  0
SPLINE
  5
24b
100
AcDbEntity
  8
0
 62
7
100
AcDbSpline
 70
8
 71
3
 72
8
 73
4
 74
0
 40
0
 40
0
 40
0
 40
0
 40
1
 40
1
 40
1
 40
1
 10
379.150240
 20
285.940497
 30
0.0
 10
376.519113
 20
284.421415
 30
0.0
 10
374.898272
 20
281.614035
 30
0.0
 10
374.898272
 20
278.575871
 30
0.0
  0
SPLINE
  5
24c
100
AcDbEntity
  8
0
 62
7
100
AcDbSpline
 70
8
 71
3
 72
8
 73
4
 74
0
 40
0
 40
0
 40
0
 40
0
 40
1
 40
1
 40
1
 40
1
 10
374.898272
 20
278.575871
 30
0.0
 10
374.898272
 20
275.537707
 30
0.0
 10
376.519114
 20
272.730328
 30
0.0
 10
379.150241
 20
271.211246
 30
0.0
  0
SPLINE
  5
24d
100
AcDbEntity
  8
0
 62
7
100
AcDbSpline
 70
8
 71
3
 72
8
 73
4
 74
0
 40
0
 40
0
 40
0
 40
0
 40
1
 40
1
 40
1
 40
1
 10
379.150241
 20
271.211246
 30
0.0
 10
381.781368
 20
269.692164
 30
0.0
 10
385.023051
 20
269.692164
 30
0.0
 10
387.654178
 20
271.211246
 30
0.0
  0
SPLINE
  5
24e
100
AcDbEntity
  8
0
 62
7
100
AcDbSpline
 70
8
 71
3
 72
8
 73
4
 74
0
 40
0
 40
0
 40
0
 40
0
 40
1
 40
1
 40
1
 40
1
 10
387.654178
 20
271.211246
 30
0.0
 10
390.285305
 20
272.730328
 30
0.0
 10
391.906147
 20
275.537707
 30
0.0
 10
391.906147
 20
278.575871
 30
0.0
  0
LWPOLYLINE
  5
24f
100
AcDbEntity
  8
0
 62
7
100
AcDbPolyline
 90
1
 70
1
 10
335.213234
 20
278.575871
 30
0.0
  0
SPLINE
  5
250
100
AcDbEntity
  8
0
 62
7
100
AcDbSpline
 70
8
 71
3
 72
8
 73
4
 74
0
 40
0
 40
0
 40
0
 40
0
 40
1
 40
1
 40
1
 40
1
 10
448.599059
 20
278.575871
 30
0.0
 10
448.599059
 20
281.614035
 30
0.0
 10
446.978217
 20
284.421415
 30
0.0
 10
444.347090
 20
285.940497
 30
0.0
  0
SPLINE
  5
251
100
AcDbEntity
  8
0
 62
7
100
AcDbSpline
 70
8
 71
3
 72
8
 73
4
 74
0
 40
0
 40
0
 40
0
 40
0
 40
1
 40
1
 40
1
 40
1
 10
444.347090
 20
285.940497
 30
0.0
 10
441.715963
 20
287.459579
 30
0.0
 10
438.474280
 20
287.459579
 30
0.0
 10
435.843153
 20
285.940497
 30
0.0
  0
SPLINE
  5
252
100
AcDbEntity
  8
0
 62
7
100
AcDbSpline
 70
8
 71
3
 72
8
 73
4
 74
0
 40
0
 40
0
 40
0
 40
0
 40
1
 40
1
 40
1
 40
1
 10
435.843153
 20
285.940497
 30
0.0
 10
433.212025
 20
284.421415
 30
0.0
 10
431.591184
 20
281.614035
 30
0.0
 10
431.591185
 20
278.575871
 30
0.0
  0
SPLINE
  5
253
100
AcDbEntity
  8
0
 62
7
100
AcDbSpline
 70
8
 71
3
 72
8
 73
4
 74
0
 40
0
 40
0
 40
0
 40
0
 40
1
 40
1
 40
1
 40
1
 10
431.591185
 20
278.575871
 30
0.0
 10
431.591185
 20
275.537707
 30
0.0
 10
433.212026
 20
272.730328
 30
0.0
 10
435.843153
 20
271.211246
 30
0.0
  0
SPLINE
  5
254
100
AcDbEntity
  8
0
 62
7
100
AcDbSpline
 70
8
 71
3
 72
8
 73
4
 74
0
 40
0
 40
0
 40
0
 40
0
 40
1
 40
1
 40
1
 40
1
 10
435.843153
 20
271.211246
 30
0.0
 10
438.474281
 20
269.692164
 30
0.0
 10
441.715963
 20
269.692164
 30
0.0
 10
444.347091
 20
271.211246
 30
0.0
  0
SPLINE
  5
255
100
AcDbEntity
  8
0
 62
7
100
AcDbSpline
 70
8
 71
3
 72
8
 73
4
 74
0
 40
0
 40
0
 40
0
 40
0
 40
1
 40
1
 40
1
 40
1
 10
444.347091
 20
271.211246
 30
0.0
 10
446.978218
 20
272.730328
 30
0.0
 10
448.599059
 20
275.537707
 30
0.0
 10
448.599059
 20
278.575871
 30
0.0
  0
LWPOLYLINE
  5
256
100
AcDbEntity
  8
0
 62
7
100
AcDbPolyline
 90
1
 70
1
 10
391.906147
 20
278.575871
 30
0.0
  0
SPLINE
  5
257
100
AcDbEntity
  8
0
 62
7
100
AcDbSpline
 70
8
 71
3
 72
8
 73
4
 74
0
 40
0
 40
0
 40
0
 40
0
 40
1
 40
1
 40
1
 40
1
 10
221.827402
 20
193.536521
 30
0.0
 10
221.829614
 20
196.576158
 30
0.0
 10
220.209257
 20
199.385845
 30
0.0
 10
217.577222
 20
200.906302
 30
0.0
  0
SPLINE
  5
258
100
AcDbEntity
  8
0
 62
7
100
AcDbSpline
 70
8
 71
3
 72
8
 73
4
 74
0
 40
0
 40
0
 40
0
 40
0
 40
1
 40
1
 40
1
 40
1
 10
217.577222
 20
200.906302
 30
0.0
 10
214.945187
 20
202.426759
 30
0.0
 10
211.701748
 20
202.426759
 30
0.0
 10
209.069713
 20
200.906302
 30
0.0
  0
SPLINE
  5
259
100
AcDbEntity
  8
0
 62
7
100
AcDbSpline
 70
8
 71
3
 72
8
 73
4
 74
0
 40
0
 40
0
 40
0
 40
0
 40
1
 40
1
 40
1
 40
1
 10
209.069713
 20
200.906302
 30
0.0
 10
206.437678
 20
199.385845
 30
0.0
 10
204.817321
 20
196.576158
 30
0.0
 10
204.819533
 20
193.536521
 30
0.0
  0
SPLINE
  5
25a
100
AcDbEntity
  8
0
 62
7
100
AcDbSpline
 70
8
 71
3
 72
8
 73
4
 74
0
 40
0
 40
0
 40
0
 40
0
 40
1
 40
1
 40
1
 40
1
 10
204.819533
 20
193.536521
 30
0.0
 10
204.817321
 20
190.496884
 30
0.0
 10
206.437678
 20
187.687198
 30
0.0
 10
209.069713
 20
186.166741
 30
0.0
  0
SPLINE
  5
25b
100
AcDbEntity
  8
0
 62
7
100
AcDbSpline
 70
8
 71
3
 72
8
 73
4
 74
0
 40
0
 40
0
 40
0
 40
0
 40
1
 40
1
 40
1
 40
1
 10
209.069713
 20
186.166741
 30
0.0
 10
211.701748
 20
184.646284
 30
0.0
 10
214.945187
 20
184.646284
 30
0.0
 10
217.577222
 20
186.166741
 30
0.0
  0
SPLINE
  5
25c
100
AcDbEntity
  8
0
 62
7
100
AcDbSpline
 70
8
 71
3
 72
8
 73
4
 74
0
 40
0
 40
0
 40
0
 40
0
 40
1
 40
1
 40
1
 40
1
 10
217.577222
 20
186.166741
 30
0.0
 10
220.209257
 20
187.687198
 30
0.0
 10
221.829614
 20
190.496884
 30
0.0
 10
221.827402
 20
193.536521
 30
0.0
  0
LWPOLYLINE
  5
25d
100
AcDbEntity
  8
0
 62
7
100
AcDbPolyline
 90
1
 70
1
 10
448.599059
 20
278.575871
 30
0.0
  0
SPLINE
  5
25e
100
AcDbEntity
  8
0
 62
7
100
AcDbSpline
 70
8
 71
3
 72
8
 73
4
 74
0
 40
0
 40
0
 40
0
 40
0
 40
1
 40
1
 40
1
 40
1
 10
278.520315
 20
193.536521
 30
0.0
 10
278.522526
 20
196.576158
 30
0.0
 10
276.902169
 20
199.385845
 30
0.0
 10
274.270134
 20
200.906302
 30
0.0
  0
SPLINE
  5
25f
100
AcDbEntity
  8
0
 62
7
100
AcDbSpline
 70
8
 71
3
 72
8
 73
4
 74
0
 40
0
 40
0
 40
0
 40
0
 40
1
 40
1
 40
1
 40
1
 10
274.270134
 20
200.906302
 30
0.0
 10
271.638100
 20
202.426759
 30
0.0
 10
268.394660
 20
202.426759
 30
0.0
 10
265.762626
 20
200.906302
 30
0.0
  0
SPLINE
  5
260
100
AcDbEntity
  8
0
 62
7
100
AcDbSpline
 70
8
 71
3
 72
8
 73
4
 74
0
 40
0
 40
0
 40
0
 40
0
 40
1
 40
1
 40
1
 40
1
 10
265.762626
 20
200.906302
 30
0.0
 10
263.130591
 20
199.385845
 30
0.0
 10
261.510234
 20
196.576158
 30
0.0
 10
261.512445
 20
193.536521
 30
0.0
  0
SPLINE
  5
261
100
AcDbEntity
  8
0
 62
7
100
AcDbSpline
 70
8
 71
3
 72
8
 73
4
 74
0
 40
0
 40
0
 40
0
 40
0
 40
1
 40
1
 40
1
 40
1
 10
261.512445
 20
193.536521
 30
0.0
 10
261.510234
 20
190.496884
 30
0.0
 10
263.130591
 20
187.687198
 30
0.0
 10
265.762626
 20
186.166741
 30
0.0
  0
SPLINE
  5
262
100
AcDbEntity
  8
0
 62
7
100
AcDbSpline
 70
8
 71
3
 72
8
 73
4
 74
0
 40
0
 40
0
 40
0
 40
0
 40
1
 40
1
 40
1
 40
1
 10
265.762626
 20
186.166741
 30
0.0
 10
268.394660
 20
184.646284
 30
0.0
 10
271.638100
 20
184.646284
 30
0.0
 10
274.270134
 20
186.166741
 30
0.0
  0
SPLINE
  5
263
100
AcDbEntity
  8
0
 62
7
100
AcDbSpline
 70
8
 71
3
 72
8
 73
4
 74
0
 40
0
 40
0
 40
0
 40
0
 40
1
 40
1
 40
1
 40
1
 10
274.270134
 20
186.166741
 30
0.0
 10
276.902169
 20
187.687198
 30
0.0
 10
278.522526
 20
190.496884
 30
0.0
 10
278.520315
 20
193.536521
 30
0.0
  0
LWPOLYLINE
  5
264
100
AcDbEntity
  8
0
 62
7
100
AcDbPolyline
 90
1
 70
1
 10
221.827402
 20
193.536521
 30
0.0
  0
SPLINE
  5
265
100
AcDbEntity
  8
0
 62
7
100
AcDbSpline
 70
8
 71
3
 72
8
 73
4
 74
0
 40
0
 40
0
 40
0
 40
0
 40
1
 40
1
 40
1
 40
1
 10
335.213234
 20
193.536521
 30
0.0
 10
335.213234
 20
196.574685
 30
0.0
 10
333.592392
 20
199.382065
 30
0.0
 10
330.961265
 20
200.901147
 30
0.0
  0
SPLINE
  5
266
100
AcDbEntity
  8
0
 62
7
100
AcDbSpline
 70
8
 71
3
 72
8
 73
4
 74
0
 40
0
 40
0
 40
0
 40
0
 40
1
 40
1
 40
1
 40
1
 10
330.961265
 20
200.901147
 30
0.0
 10
328.330138
 20
202.420229
 30
0.0
 10
325.088455
 20
202.420229
 30
0.0
 10
322.457328
 20
200.901147
 30
0.0
  0
SPLINE
  5
267
100
AcDbEntity
  8
0
 62
7
100
AcDbSpline
 70
8
 71
3
 72
8
 73
4
 74
0
 40
0
 40
0
 40
0
 40
0
 40
1
 40
1
 40
1
 40
1
 10
322.457328
 20
200.901147
 30
0.0
 10
319.826200
 20
199.382065
 30
0.0
 10
318.205359
 20
196.574685
 30
0.0
 10
318.205360
 20
193.536521
 30
0.0
  0
SPLINE
  5
268
100
AcDbEntity
  8
0
 62
7
100
AcDbSpline
 70
8
 71
3
 72
8
 73
4
 74
0
 40
0
 40
0
 40
0
 40
0
 40
1
 40
1
 40
1
 40
1
 10
318.205360
 20
193.536521
 30
0.0
 10
318.205360
 20
190.498357
 30
0.0
 10
319.826201
 20
187.690978
 30
0.0
 10
322.457328
 20
186.171896
 30
0.0
  0
SPLINE
  5
269
100
AcDbEntity
  8
0
 62
7
100
AcDbSpline
 70
8
 71
3
 72
8
 73
4
 74
0
 40
0
 40
0
 40
0
 40
0
 40
1
 40
1
 40
1
 40
1
 10
322.457328
 20
186.171896
 30
0.0
 10
325.088456
 20
184.652814
 30
0.0
 10
328.330138
 20
184.652814
 30
0.0
 10
330.961266
 20
186.171896
 30
0.0
  0
SPLINE
  5
26a
100
AcDbEntity
  8
0
 62
7
100
AcDbSpline
 70
8
 71
3
 72
8
 73
4
 74
0
 40
0
 40
0
 40
0
 40
0
 40
1
 40
1
 40
1
 40
1
 10
330.961266
 20
186.171896
 30
0.0
 10
333.592393
 20
187.690978
 30
0.0
 10
335.213234
 20
190.498357
 30
0.0
 10
335.213234
 20
193.536521
 30
0.0
  0
LWPOLYLINE
  5
26b
100
AcDbEntity
  8
0
 62
7
100
AcDbPolyline
 90
1
 70
1
 10
278.520315
 20
193.536521
 30
0.0
  0
SPLINE
  5
26c
100
AcDbEntity
  8
0
 62
7
100
AcDbSpline
 70
8
 71
3
 72
8
 73
4
 74
0
 40
0
 40
0
 40
0
 40
0
 40
1
 40
1
 40
1
 40
1
 10
391.906146
 20
193.536521
 30
0.0
 10
391.906146
 20
196.574685
 30
0.0
 10
390.285305
 20
199.382065
 30
0.0
 10
387.654177
 20
200.901147
 30
0.0
  0
SPLINE
  5
26d
100
AcDbEntity
  8
0
 62
7
100
AcDbSpline
 70
8
 71
3
 72
8
 73
4
 74
0
 40
0
 40
0
 40
0
 40
0
 40
1
 40
1
 40
1
 40
1
 10
387.654177
 20
200.901147
 30
0.0
 10
385.023050
 20
202.420229
 30
0.0
 10
381.781367
 20
202.420229
 30
0.0
 10
379.150240
 20
200.901147
 30
0.0
  0
SPLINE
  5
26e
100
AcDbEntity
  8
0
 62
7
100
AcDbSpline
 70
8
 71
3
 72
8
 73
4
 74
0
 40
0
 40
0
 40
0
 40
0
 40
1
 40
1
 40
1
 40
1
 10
379.150240
 20
200.901147
 30
0.0
 10
376.519113
 20
199.382065
 30
0.0
 10
374.898272
 20
196.574685
 30
0.0
 10
374.898272
 20
193.536521
 30
0.0
  0
SPLINE
  5
26f
100
AcDbEntity
  8
0
 62
7
100
AcDbSpline
 70
8
 71
3
 72
8
 73
4
 74
0
 40
0
 40
0
 40
0
 40
0
 40
1
 40
1
 40
1
 40
1
 10
374.898272
 20
193.536521
 30
0.0
 10
374.898272
 20
190.498357
 30
0.0
 10
376.519114
 20
187.690978
 30
0.0
 10
379.150241
 20
186.171896
 30
0.0
  0
SPLINE
  5
270
100
AcDbEntity
  8
0
 62
7
100
AcDbSpline
 70
8
 71
3
 72
8
 73
4
 74
0
 40
0
 40
0
 40
0
 40
0
 40
1
 40
1
 40
1
 40
1
 10
379.150241
 20
186.171896
 30
0.0
 10
381.781368
 20
184.652814
 30
0.0
 10
385.023051
 20
184.652814
 30
0.0
 10
387.654178
 20
186.171896
 30
0.0
  0
SPLINE
  5
271
100
AcDbEntity
  8
0
 62
7
100
AcDbSpline
 70
8
 71
3
 72
8
 73
4
 74
0
 40
0
 40
0
 40
0
 40
0
 40
1
 40
1
 40
1
 40
1
 10
387.654178
 20
186.171896
 30
0.0
 10
390.285305
 20
187.690978
 30
0.0
 10
391.906147
 20
190.498357
 30
0.0
 10
391.906147
 20
193.536521
 30
0.0
  0
LWPOLYLINE
  5
272
100
AcDbEntity
  8
0
 62
7
100
AcDbPolyline
 90
1
 70
1
 10
335.213234
 20
193.536521
 30
0.0
  0
SPLINE
  5
273
100
AcDbEntity
  8
0
 62
7
100
AcDbSpline
 70
8
 71
3
 72
8
 73
4
 74
0
 40
0
 40
0
 40
0
 40
0
 40
1
 40
1
 40
1
 40
1
 10
448.599059
 20
193.536521
 30
0.0
 10
448.599059
 20
196.574685
 30
0.0
 10
446.978217
 20
199.382065
 30
0.0
 10
444.347090
 20
200.901147
 30
0.0
  0
SPLINE
  5
274
100
AcDbEntity
  8
0
 62
7
100
AcDbSpline
 70
8
 71
3
 72
8
 73
4
 74
0
 40
0
 40
0
 40
0
 40
0
 40
1
 40
1
 40
1
 40
1
 10
444.347090
 20
200.901147
 30
0.0
 10
441.715963
 20
202.420229
 30
0.0
 10
438.474280
 20
202.420229
 30
0.0
 10
435.843153
 20
200.901147
 30
0.0
  0
SPLINE
  5
275
100
AcDbEntity
  8
0
 62
7
100
AcDbSpline
 70
8
 71
3
 72
8
 73
4
 74
0
 40
0
 40
0
 40
0
 40
0
 40
1
 40
1
 40
1
 40
1
 10
435.843153
 20
200.901147
 30
0.0
 10
433.212025
 20
199.382065
 30
0.0
 10
431.591184
 20
196.574685
 30
0.0
 10
431.591185
 20
193.536521
 30
0.0
  0
SPLINE
  5
276
100
AcDbEntity
  8
0
 62
7
100
AcDbSpline
 70
8
 71
3
 72
8
 73
4
 74
0
 40
0
 40
0
 40
0
 40
0
 40
1
 40
1
 40
1
 40
1
 10
431.591185
 20
193.536521
 30
0.0
 10
431.591185
 20
190.498357
 30
0.0
 10
433.212026
 20
187.690978
 30
0.0
 10
435.843153
 20
186.171896
 30
0.0
  0
SPLINE
  5
277
100
AcDbEntity
  8
0
 62
7
100
AcDbSpline
 70
8
 71
3
 72
8
 73
4
 74
0
 40
0
 40
0
 40
0
 40
0
 40
1
 40
1
 40
1
 40
1
 10
435.843153
 20
186.171896
 30
0.0
 10
438.474281
 20
184.652814
 30
0.0
 10
441.715963
 20
184.652814
 30
0.0
 10
444.347091
 20
186.171896
 30
0.0
  0
SPLINE
  5
278
100
AcDbEntity
  8
0
 62
7
100
AcDbSpline
 70
8
 71
3
 72
8
 73
4
 74
0
 40
0
 40
0
 40
0
 40
0
 40
1
 40
1
 40
1
 40
1
 10
444.347091
 20
186.171896
 30
0.0
 10
446.978218
 20
187.690978
 30
0.0
 10
448.599059
 20
190.498357
 30
0.0
 10
448.599059
 20
193.536521
 30
0.0
  0
LWPOLYLINE
  5
279
100
AcDbEntity
  8
0
 62
7
100
AcDbPolyline
 90
1
 70
1
 10
391.906147
 20
193.536521
 30
0.0
  0
SPLINE
  5
27a
100
AcDbEntity
  8
0
 62
7
100
AcDbSpline
 70
8
 71
3
 72
8
 73
4
 74
0
 40
0
 40
0
 40
0
 40
0
 40
1
 40
1
 40
1
 40
1
 10
199.150237
 20
632.906546
 30
0.0
 10
199.153092
 20
637.972054
 30
0.0
 10
196.452315
 20
642.653999
 30
0.0
 10
192.065931
 20
645.187577
 30
0.0
  0
SPLINE
  5
27b
100
AcDbEntity
  8
0
 62
7
100
AcDbSpline
 70
8
 71
3
 72
8
 73
4
 74
0
 40
0
 40
0
 40
0
 40
0
 40
1
 40
1
 40
1
 40
1
 10
192.065931
 20
645.187577
 30
0.0
 10
187.679547
 20
647.721156
 30
0.0
 10
182.274475
 20
647.721156
 30
0.0
 10
177.888092
 20
645.187577
 30
0.0
  0
SPLINE
  5
27c
100
AcDbEntity
  8
0
 62
7
100
AcDbSpline
 70
8
 71
3
 72
8
 73
4
 74
0
 40
0
 40
0
 40
0
 40
0
 40
1
 40
1
 40
1
 40
1
 10
177.888092
 20
645.187577
 30
0.0
 10
173.501708
 20
642.653999
 30
0.0
 10
170.800931
 20
637.972054
 30
0.0
 10
170.803785
 20
632.906546
 30
0.0
  0
SPLINE
  5
27d
100
AcDbEntity
  8
0
 62
7
100
AcDbSpline
 70
8
 71
3
 72
8
 73
4
 74
0
 40
0
 40
0
 40
0
 40
0
 40
1
 40
1
 40
1
 40
1
 10
170.803785
 20
632.906546
 30
0.0
 10
170.800931
 20
627.841038
 30
0.0
 10
173.501708
 20
623.159094
 30
0.0
 10
177.888092
 20
620.625515
 30
0.0
  0
SPLINE
  5
27e
100
AcDbEntity
  8
0
 62
7
100
AcDbSpline
 70
8
 71
3
 72
8
 73
4
 74
0
 40
0
 40
0
 40
0
 40
0
 40
1
 40
1
 40
1
 40
1
 10
177.888092
 20
620.625515
 30
0.0
 10
182.274475
 20
618.091937
 30
0.0
 10
187.679547
 20
618.091937
 30
0.0
 10
192.065931
 20
620.625515
 30
0.0
  0
SPLINE
  5
27f
100
AcDbEntity
  8
0
 62
7
100
AcDbSpline
 70
8
 71
3
 72
8
 73
4
 74
0
 40
0
 40
0
 40
0
 40
0
 40
1
 40
1
 40
1
 40
1
 10
192.065931
 20
620.625515
 30
0.0
 10
196.452315
 20
623.159094
 30
0.0
 10
199.153092
 20
627.841038
 30
0.0
 10
199.150237
 20
632.906546
 30
0.0
  0
LWPOLYLINE
  5
280
100
AcDbEntity
  8
0
 62
7
100
AcDbPolyline
 90
1
 70
1
 10
448.599059
 20
193.536521
 30
0.0
  0
SPLINE
  5
281
100
AcDbEntity
  8
0
 62
7
100
AcDbSpline
 70
8
 71
3
 72
8
 73
4
 74
0
 40
0
 40
0
 40
0
 40
0
 40
1
 40
1
 40
1
 40
1
 10
340.882522
 20
477.001046
 30
0.0
 10
340.885377
 20
482.066554
 30
0.0
 10
338.184600
 20
486.748499
 30
0.0
 10
333.798216
 20
489.282077
 30
0.0
  0
SPLINE
  5
282
100
AcDbEntity
  8
0
 62
7
100
AcDbSpline
 70
8
 71
3
 72
8
 73
4
 74
0
 40
0
 40
0
 40
0
 40
0
 40
1
 40
1
 40
1
 40
1
 10
333.798216
 20
489.282077
 30
0.0
 10
329.411832
 20
491.815656
 30
0.0
 10
324.006760
 20
491.815656
 30
0.0
 10
319.620377
 20
489.282077
 30
0.0
  0
SPLINE
  5
283
100
AcDbEntity
  8
0
 62
7
100
AcDbSpline
 70
8
 71
3
 72
8
 73
4
 74
0
 40
0
 40
0
 40
0
 40
0
 40
1
 40
1
 40
1
 40
1
 10
319.620377
 20
489.282077
 30
0.0
 10
315.233993
 20
486.748499
 30
0.0
 10
312.533216
 20
482.066554
 30
0.0
 10
312.536070
 20
477.001046
 30
0.0
  0
SPLINE
  5
284
100
AcDbEntity
  8
0
 62
7
100
AcDbSpline
 70
8
 71
3
 72
8
 73
4
 74
0
 40
0
 40
0
 40
0
 40
0
 40
1
 40
1
 40
1
 40
1
 10
312.536070
 20
477.001046
 30
0.0
 10
312.533216
 20
471.935538
 30
0.0
 10
315.233993
 20
467.253594
 30
0.0
 10
319.620377
 20
464.720015
 30
0.0
  0
SPLINE
  5
285
100
AcDbEntity
  8
0
 62
7
100
AcDbSpline
 70
8
 71
3
 72
8
 73
4
 74
0
 40
0
 40
0
 40
0
 40
0
 40
1
 40
1
 40
1
 40
1
 10
319.620377
 20
464.720015
 30
0.0
 10
324.006760
 20
462.186437
 30
0.0
 10
329.411832
 20
462.186437
 30
0.0
 10
333.798216
 20
464.720015
 30
0.0
  0
SPLINE
  5
286
100
AcDbEntity
  8
0
 62
7
100
AcDbSpline
 70
8
 71
3
 72
8
 73
4
 74
0
 40
0
 40
0
 40
0
 40
0
 40
1
 40
1
 40
1
 40
1
 10
333.798216
 20
464.720015
 30
0.0
 10
338.184600
 20
467.253594
 30
0.0
 10
340.885377
 20
471.935538
 30
0.0
 10
340.882522
 20
477.001046
 30
0.0
  0
LWPOLYLINE
  5
287
100
AcDbEntity
  8
0
 62
7
100
AcDbPolyline
 90
1
 70
1
 10
199.150237
 20
632.906546
 30
0.0
  0
SPLINE
  5
288
100
AcDbEntity
  8
0
 62
7
100
AcDbSpline
 70
8
 71
3
 72
8
 73
4
 74
0
 40
0
 40
0
 40
0
 40
0
 40
1
 40
1
 40
1
 40
1
 10
397.575435
 20
477.001046
 30
0.0
 10
397.578289
 20
482.066554
 30
0.0
 10
394.877512
 20
486.748499
 30
0.0
 10
390.491128
 20
489.282077
 30
0.0
  0
SPLINE
  5
289
100
AcDbEntity
  8
0
 62
7
100
AcDbSpline
 70
8
 71
3
 72
8
 73
4
 74
0
 40
0
 40
0
 40
0
 40
0
 40
1
 40
1
 40
1
 40
1
 10
390.491128
 20
489.282077
 30
0.0
 10
386.104745
 20
491.815656
 30
0.0
 10
380.699673
 20
491.815656
 30
0.0
 10
376.313289
 20
489.282077
 30
0.0
  0
SPLINE
  5
28a
100
AcDbEntity
  8
0
 62
7
100
AcDbSpline
 70
8
 71
3
 72
8
 73
4
 74
0
 40
0
 40
0
 40
0
 40
0
 40
1
 40
1
 40
1
 40
1
 10
376.313289
 20
489.282077
 30
0.0
 10
371.926905
 20
486.748499
 30
0.0
 10
369.226128
 20
482.066554
 30
0.0
 10
369.228982
 20
477.001046
 30
0.0
  0
SPLINE
  5
28b
100
AcDbEntity
  8
0
 62
7
100
AcDbSpline
 70
8
 71
3
 72
8
 73
4
 74
0
 40
0
 40
0
 40
0
 40
0
 40
1
 40
1
 40
1
 40
1
 10
369.228982
 20
477.001046
 30
0.0
 10
369.226128
 20
471.935538
 30
0.0
 10
371.926905
 20
467.253594
 30
0.0
 10
376.313289
 20
464.720015
 30
0.0
  0
SPLINE
  5
28c
100
AcDbEntity
  8
0
 62
7
100
AcDbSpline
 70
8
 71
3
 72
8
 73
4
 74
0
 40
0
 40
0
 40
0
 40
0
 40
1
 40
1
 40
1
 40
1
 10
376.313289
 20
464.720015
 30
0.0
 10
380.699673
 20
462.186437
 30
0.0
 10
386.104745
 20
462.186437
 30
0.0
 10
390.491128
 20
464.720015
 30
0.0
  0
SPLINE
  5
28d
100
AcDbEntity
  8
0
 62
7
100
AcDbSpline
 70
8
 71
3
 72
8
 73
4
 74
0
 40
0
 40
0
 40
0
 40
0
 40
1
 40
1
 40
1
 40
1
 10
390.491128
 20
464.720015
 30
0.0
 10
394.877512
 20
467.253594
 30
0.0
 10
397.578289
 20
471.935538
 30
0.0
 10
397.575435
 20
477.001046
 30
0.0
  0
LWPOLYLINE
  5
28e
100
AcDbEntity
  8
0
 62
7
100
AcDbPolyline
 90
1
 70
1
 10
340.882522
 20
477.001046
 30
0.0
  0
LWPOLYLINE
  5
28f
100
AcDbEntity
  8
0
 62
7
100
AcDbPolyline
 90
1
 70
1
 10
397.575435
 20
477.001046
 30
0.0
  0
ENDSEC
  0
SECTION
  2
OBJECTS
  0
DICTIONARY
  5
C
330
0
100
AcDbDictionary
  3
ACAD_GROUP
350
D
  3
ACAD_MLINESTYLE
350
17
  0
DICTIONARY
  5
D
330
C
100
AcDbDictionary
  0
DICTIONARY
  5
1A
330
C
100
AcDbDictionary
  0
DICTIONARY
  5
17
330
C
100
AcDbDictionary
  3
STANDARD
350
18
  0
DICTIONARY
  5
19
330
C
100
AcDbDictionary
  0
ENDSEC
  0
EOF
